<svg width="632" height="771" viewBox="0 0 632 771" fill="none" xmlns="http://www.w3.org/2000/svg">
<g opacity="0.360584">
<path d="M629.577 434.101L1.54053 145.461" stroke="url(#paint0_linear)" stroke-opacity="0.8" stroke-dasharray="1 4"/>
<path d="M630.803 515.817L2.76611 227.179" stroke="url(#paint1_linear)" stroke-opacity="0.8" stroke-dasharray="1 4"/>
<path d="M1 434.101L629.037 145.461" stroke="url(#paint2_linear)" stroke-opacity="0.8" stroke-dasharray="1 4"/>
<path d="M1 515.817L629.037 227.179" stroke="url(#paint3_linear)" stroke-opacity="0.8" stroke-dasharray="1 4"/>
<path d="M157.908 1.01123L97.4717 767.365" stroke="url(#paint4_linear)" stroke-opacity="0.8" stroke-dasharray="1 4"/>
<path d="M216.438 769.999L244.25 1.04639" stroke="url(#paint5_linear)" stroke-opacity="0.8" stroke-dasharray="1 4"/>
<path d="M378.02 696.607L561.247 612.398" stroke="url(#paint6_linear)" stroke-opacity="0.8" stroke-dasharray="1 4"/>
<path d="M252.215 696.607L68.9878 612.398" stroke="url(#paint7_linear)" stroke-opacity="0.8" stroke-dasharray="1 4"/>
<path d="M472.821 1L533.259 767.364" stroke="url(#paint8_linear)" stroke-opacity="0.8" stroke-dasharray="1 4"/>
<path d="M414.323 770L386.515 1.14355" stroke="url(#paint9_linear)" stroke-opacity="0.8" stroke-dasharray="1 4"/>
<path d="M358.067 50.9683L522.207 106.406" stroke="url(#paint10_linear)" stroke-opacity="0.8" stroke-dasharray="1 4"/>
<path d="M272.763 50.9683L108.623 106.406" stroke="url(#paint11_linear)" stroke-opacity="0.8" stroke-dasharray="1 4"/>
</g>
<path fill-rule="evenodd" clip-rule="evenodd" d="M475.063 632.756C475.063 650.884 460.392 665.581 442.294 665.581C424.196 665.581 409.524 650.884 409.524 632.756C409.524 614.628 424.196 599.933 442.294 599.933C460.392 599.933 475.063 614.628 475.063 632.756Z" stroke="#6309FF" stroke-opacity="0.35" stroke-width="0.4"/>
<path fill-rule="evenodd" clip-rule="evenodd" d="M402.446 432.701C402.446 450.829 387.775 465.524 369.676 465.524C351.578 465.524 336.907 450.829 336.907 432.701C336.907 414.573 351.578 399.876 369.676 399.876C387.775 399.876 402.446 414.573 402.446 432.701Z" stroke="#6309FF" stroke-opacity="0.35" stroke-width="0.4"/>
<path fill-rule="evenodd" clip-rule="evenodd" d="M394.241 232.386C394.241 250.514 379.57 265.21 361.472 265.21C343.373 265.21 328.702 250.514 328.702 232.386C328.702 214.258 343.373 199.562 361.472 199.562C379.57 199.562 394.241 214.258 394.241 232.386Z" stroke="#6309FF" stroke-opacity="0.35" stroke-width="0.4"/>
<path fill-rule="evenodd" clip-rule="evenodd" d="M481.882 116.633C481.882 134.761 467.211 149.458 449.113 149.458C431.015 149.458 416.343 134.761 416.343 116.633C416.343 98.5057 431.015 83.8101 449.113 83.8101C467.211 83.8101 481.882 98.5057 481.882 116.633Z" stroke="#6309FF" stroke-opacity="0.35" stroke-width="0.4"/>
<path fill-rule="evenodd" clip-rule="evenodd" d="M215.337 116.633C215.337 134.761 200.666 149.458 182.568 149.458C164.47 149.458 149.798 134.761 149.798 116.633C149.798 98.5057 164.47 83.8101 182.568 83.8101C200.666 83.8101 215.337 98.5057 215.337 116.633Z" stroke="#6309FF" stroke-opacity="0.35" stroke-width="0.4"/>
<path fill-rule="evenodd" clip-rule="evenodd" d="M438.336 94.4177C438.336 106.653 428.432 116.574 416.216 116.574C404 116.574 394.096 106.653 394.096 94.4177C394.096 82.1807 404 72.2617 416.216 72.2617C428.432 72.2617 438.336 82.1807 438.336 94.4177Z" stroke="#6309FF" stroke-opacity="0.35" stroke-width="0.4"/>
<path fill-rule="evenodd" clip-rule="evenodd" d="M237.411 94.4177C237.411 106.653 227.508 116.574 215.292 116.574C203.076 116.574 193.172 106.653 193.172 94.4177C193.172 82.1807 203.076 72.2617 215.292 72.2617C227.508 72.2617 237.411 82.1807 237.411 94.4177Z" stroke="#6309FF" stroke-opacity="0.35" stroke-width="0.4"/>
<path fill-rule="evenodd" clip-rule="evenodd" d="M234.488 232.386C234.488 250.514 249.159 265.21 267.257 265.21C285.355 265.21 300.027 250.514 300.027 232.386C300.027 214.258 285.355 199.562 267.257 199.562C249.159 199.562 234.488 214.258 234.488 232.386Z" stroke="#6309FF" stroke-opacity="0.35" stroke-width="0.4"/>
<path fill-rule="evenodd" clip-rule="evenodd" d="M136.177 266.311C136.177 284.439 150.848 299.135 168.946 299.135C187.044 299.135 201.716 284.439 201.716 266.311C201.716 248.183 187.044 233.488 168.946 233.488C150.848 233.488 136.177 248.183 136.177 266.311Z" stroke="#6309FF" stroke-opacity="0.35" stroke-width="0.4"/>
<path fill-rule="evenodd" clip-rule="evenodd" d="M425.989 266.287C425.989 284.414 440.66 299.11 458.758 299.11C476.856 299.11 491.528 284.414 491.528 266.287C491.528 248.159 476.856 233.463 458.758 233.463C440.66 233.463 425.989 248.159 425.989 266.287Z" stroke="#6309FF" stroke-opacity="0.35" stroke-width="0.4"/>
<path fill-rule="evenodd" clip-rule="evenodd" d="M436.229 386.103C436.229 404.231 450.901 418.927 468.998 418.927C487.097 418.927 501.768 404.231 501.768 386.103C501.768 367.975 487.097 353.28 468.998 353.28C450.901 353.28 436.229 367.975 436.229 386.103Z" stroke="#6309FF" stroke-opacity="0.35" stroke-width="0.4"/>
<path fill-rule="evenodd" clip-rule="evenodd" d="M125.936 386.583C125.936 404.71 140.607 419.406 158.705 419.406C176.804 419.406 191.475 404.71 191.475 386.583C191.475 368.455 176.804 353.759 158.705 353.759C140.607 353.759 125.936 368.455 125.936 386.583Z" stroke="#6309FF" stroke-opacity="0.35" stroke-width="0.4"/>
<path fill-rule="evenodd" clip-rule="evenodd" d="M528.907 323.382C528.907 342.501 513.433 358.001 494.345 358.001C475.257 358.001 459.783 342.501 459.783 323.382C459.783 304.263 475.257 288.763 494.345 288.763C513.433 288.763 528.907 304.263 528.907 323.382Z" stroke="#6309FF" stroke-opacity="0.35" stroke-width="0.4"/>
<path fill-rule="evenodd" clip-rule="evenodd" d="M168.434 323.96C168.434 343.079 152.96 358.579 133.872 358.579C114.785 358.579 99.3105 343.079 99.3105 323.96C99.3105 304.841 114.785 289.341 133.872 289.341C152.96 289.341 168.434 304.841 168.434 323.96Z" stroke="#6309FF" stroke-opacity="0.35" stroke-width="0.4"/>
<path fill-rule="evenodd" clip-rule="evenodd" d="M521.132 611.275C521.132 629.403 506.46 644.099 488.363 644.099C470.264 644.099 455.593 629.403 455.593 611.275C455.593 593.148 470.264 578.451 488.363 578.451C506.46 578.451 521.132 593.148 521.132 611.275Z" stroke="#6309FF" stroke-opacity="0.35" stroke-width="0.4"/>
<path fill-rule="evenodd" clip-rule="evenodd" d="M222.38 632.616C222.38 650.743 207.709 665.439 189.611 665.439C171.513 665.439 156.841 650.743 156.841 632.616C156.841 614.488 171.513 599.791 189.611 599.791C207.709 599.791 222.38 614.488 222.38 632.616Z" stroke="#6309FF" stroke-opacity="0.35" stroke-width="0.4"/>
<path fill-rule="evenodd" clip-rule="evenodd" d="M176.103 611.088C176.103 629.215 161.432 643.911 143.333 643.911C125.236 643.911 110.564 629.215 110.564 611.088C110.564 592.96 125.236 578.264 143.333 578.264C161.432 578.264 176.103 592.96 176.103 611.088Z" stroke="#6309FF" stroke-opacity="0.35" stroke-width="0.4"/>
<path fill-rule="evenodd" clip-rule="evenodd" d="M227.319 432.186C227.319 450.314 241.991 465.01 260.089 465.01C278.187 465.01 292.858 450.314 292.858 432.186C292.858 414.058 278.187 399.363 260.089 399.363C241.991 399.363 227.319 414.058 227.319 432.186Z" stroke="#6309FF" stroke-opacity="0.35" stroke-width="0.4"/>
<path fill-rule="evenodd" clip-rule="evenodd" d="M460.638 86.1641C447.291 81.7206 433.945 77.2759 420.968 72.8324C404.656 66.9069 388.713 83.5716 389.454 105.42C390.938 146.895 392.42 188.001 393.904 229.476C394.275 243.178 387.601 255.768 377.22 260.952C356.458 270.951 335.326 280.58 314.193 290.207C293.061 280.95 271.928 270.951 251.166 260.952C240.414 255.768 234.111 243.178 234.483 229.476C235.966 188.001 237.449 146.895 238.932 105.42C239.673 83.2014 223.731 66.9069 207.418 72.8324C194.072 77.2759 181.095 82.0908 167.749 86.1641C156.997 89.8673 148.84 101.717 147.728 116.159C144.02 165.041 139.942 213.922 136.235 262.434C135.123 276.136 141.425 288.726 151.806 294.28C175.164 306.502 172.939 346.496 147.357 355.753C135.864 359.826 127.337 371.306 126.224 385.008C120.293 459.441 114.361 534.245 108.428 608.677C107.316 623.119 115.102 636.451 128.449 641.635C144.391 647.931 160.704 656.667 177.017 662.963C197.408 670.739 219.283 655.556 220.024 633.337C222.248 566.311 224.843 499.494 227.068 432.097C227.439 418.395 235.595 406.545 247.088 402.102C269.703 393.214 291.948 381.675 314.193 372.047C336.438 381.305 358.576 393.214 381.191 402.102C392.721 407.413 400.84 418.395 401.211 432.097C403.436 499.124 406.138 566.087 408.363 633.484C409.104 655.703 430.978 670.515 451.369 663.109C467.682 656.813 483.995 647.931 499.937 641.635C512.913 636.451 521.069 623.119 519.958 608.677C514.025 534.245 508.094 459.441 502.162 385.008C501.05 371.306 492.893 359.826 481.03 355.753C455.448 346.866 453.223 306.502 476.58 294.28C487.332 288.726 493.264 275.765 492.151 262.434C488.445 213.552 484.365 164.67 480.658 116.159C479.546 101.717 471.39 89.4971 460.638 86.1641Z" stroke="url(#paint12_linear)" stroke-width="2" stroke-linejoin="round"/>
<defs>
<linearGradient id="paint0_linear" x1="-746.288" y1="137.881" x2="-599.559" y2="913.878" gradientUnits="userSpaceOnUse">
<stop stop-color="#320A8D" stop-opacity="0.23"/>
<stop offset="0.562157" stop-color="white" stop-opacity="0.91734"/>
<stop offset="1" stop-color="white" stop-opacity="0.01"/>
</linearGradient>
<linearGradient id="paint1_linear" x1="-745.062" y1="219.599" x2="-598.335" y2="995.592" gradientUnits="userSpaceOnUse">
<stop stop-color="#320A8D" stop-opacity="0.23"/>
<stop offset="0.562157" stop-color="white" stop-opacity="0.91734"/>
<stop offset="1" stop-color="white" stop-opacity="0.01"/>
</linearGradient>
<linearGradient id="paint2_linear" x1="-746.828" y1="137.881" x2="-600.1" y2="913.878" gradientUnits="userSpaceOnUse">
<stop stop-color="#320A8D" stop-opacity="0.23"/>
<stop offset="0.562157" stop-color="white" stop-opacity="0.91734"/>
<stop offset="1" stop-color="white" stop-opacity="0.01"/>
</linearGradient>
<linearGradient id="paint3_linear" x1="-746.828" y1="219.599" x2="-600.101" y2="995.592" gradientUnits="userSpaceOnUse">
<stop stop-color="#320A8D" stop-opacity="0.23"/>
<stop offset="0.562157" stop-color="white" stop-opacity="0.91734"/>
<stop offset="1" stop-color="white" stop-opacity="0.01"/>
</linearGradient>
<linearGradient id="paint4_linear" x1="120.816" y1="-30.7459" x2="306.266" y2="22.0499" gradientUnits="userSpaceOnUse">
<stop stop-color="white" stop-opacity="0"/>
<stop offset="0.562157" stop-color="white" stop-opacity="0.91734"/>
<stop offset="1" stop-color="white" stop-opacity="0.01"/>
</linearGradient>
<linearGradient id="paint5_linear" x1="183.322" y1="-19.1475" x2="370.116" y2="-2.72599" gradientUnits="userSpaceOnUse">
<stop stop-color="#320A8D" stop-opacity="0.23"/>
<stop offset="0.562157" stop-color="white" stop-opacity="0.91734"/>
<stop offset="1" stop-color="white" stop-opacity="0.01"/>
</linearGradient>
<linearGradient id="paint6_linear" x1="159.843" y1="610.187" x2="202.65" y2="836.578" gradientUnits="userSpaceOnUse">
<stop stop-color="#320A8D" stop-opacity="0.23"/>
<stop offset="0.562157" stop-color="white" stop-opacity="0.91734"/>
<stop offset="1" stop-color="white" stop-opacity="0.01"/>
</linearGradient>
<linearGradient id="paint7_linear" x1="-149.189" y1="610.187" x2="-106.382" y2="836.578" gradientUnits="userSpaceOnUse">
<stop stop-color="#320A8D" stop-opacity="0.23"/>
<stop offset="0.562157" stop-color="white" stop-opacity="0.91734"/>
<stop offset="1" stop-color="white" stop-opacity="0.01"/>
</linearGradient>
<linearGradient id="paint8_linear" x1="439.301" y1="24.0415" x2="598.591" y2="34.0992" gradientUnits="userSpaceOnUse">
<stop stop-color="white" stop-opacity="0"/>
<stop offset="0.50605" stop-color="white" stop-opacity="0.91734"/>
<stop offset="1" stop-color="white" stop-opacity="0.01"/>
</linearGradient>
<linearGradient id="paint9_linear" x1="353.402" y1="-19.0478" x2="540.174" y2="-2.62826" gradientUnits="userSpaceOnUse">
<stop stop-color="#320A8D" stop-opacity="0.23"/>
<stop offset="0.562157" stop-color="white" stop-opacity="0.91734"/>
<stop offset="1" stop-color="white" stop-opacity="0.01"/>
</linearGradient>
<linearGradient id="paint10_linear" x1="162.62" y1="49.5124" x2="183.664" y2="200.959" gradientUnits="userSpaceOnUse">
<stop stop-color="#320A8D" stop-opacity="0.23"/>
<stop offset="0.562157" stop-color="white" stop-opacity="0.91734"/>
<stop offset="1" stop-color="white" stop-opacity="0.01"/>
</linearGradient>
<linearGradient id="paint11_linear" x1="-86.8261" y1="49.5124" x2="-65.7819" y2="200.959" gradientUnits="userSpaceOnUse">
<stop stop-color="#320A8D" stop-opacity="0.23"/>
<stop offset="0.562157" stop-color="white" stop-opacity="0.91734"/>
<stop offset="1" stop-color="white" stop-opacity="0.01"/>
</linearGradient>
<linearGradient id="paint12_linear" x1="305.148" y1="-69.1485" x2="305.148" y2="465.927" gradientUnits="userSpaceOnUse">
<stop stop-color="#5D00FF"/>
<stop offset="1" stop-color="#5D00FF" stop-opacity="0"/>
</linearGradient>
</defs>
</svg>
