<svg width="337" height="337" viewBox="0 0 337 337" fill="none" xmlns="http://www.w3.org/2000/svg">
<circle cx="1" cy="1" r="1" transform="rotate(-180 1 1)" fill="#8B8B8B"/>
<circle cx="20.6963" cy="1" r="1" transform="rotate(-180 20.6963 1)" fill="#8B8B8B"/>
<circle cx="40.3931" cy="1" r="1" transform="rotate(-180 40.3931 1)" fill="#8B8B8B"/>
<circle cx="60.0894" cy="1" r="1" transform="rotate(-180 60.0894 1)" fill="#8B8B8B"/>
<circle cx="79.7861" cy="1" r="1" transform="rotate(-180 79.7861 1)" fill="#8B8B8B"/>
<circle cx="99.4829" cy="1" r="1" transform="rotate(-180 99.4829 1)" fill="#8B8B8B"/>
<circle cx="119.179" cy="1" r="1" transform="rotate(-180 119.179 1)" fill="#8B8B8B"/>
<circle cx="138.876" cy="1" r="1" transform="rotate(-180 138.876 1)" fill="#8B8B8B"/>
<circle cx="158.572" cy="1" r="1" transform="rotate(-180 158.572 1)" fill="#8B8B8B"/>
<circle cx="178.269" cy="1" r="1" transform="rotate(-180 178.269 1)" fill="#8B8B8B"/>
<circle cx="197.965" cy="1" r="1" transform="rotate(-180 197.965 1)" fill="#8B8B8B"/>
<circle cx="217.662" cy="1" r="1" transform="rotate(-180 217.662 1)" fill="#8B8B8B"/>
<circle cx="237.358" cy="1" r="1" transform="rotate(-180 237.358 1)" fill="#8B8B8B"/>
<circle cx="257.055" cy="1" r="1" transform="rotate(-180 257.055 1)" fill="#8B8B8B"/>
<circle cx="276.751" cy="1" r="1" transform="rotate(-180 276.751 1)" fill="#8B8B8B"/>
<circle cx="296.448" cy="1" r="1" transform="rotate(-180 296.448 1)" fill="#8B8B8B"/>
<circle cx="316.145" cy="1" r="1" transform="rotate(-180 316.145 1)" fill="#8B8B8B"/>
<circle cx="335.841" cy="1" r="1" transform="rotate(-180 335.841 1)" fill="#8B8B8B"/>
<circle cx="1" cy="1" r="1" transform="rotate(-180 1 1)" fill="#8B8B8B"/>
<circle cx="20.6963" cy="1" r="1" transform="rotate(-180 20.6963 1)" fill="#8B8B8B"/>
<circle cx="40.3931" cy="1" r="1" transform="rotate(-180 40.3931 1)" fill="#8B8B8B"/>
<circle cx="60.0894" cy="1" r="1" transform="rotate(-180 60.0894 1)" fill="#8B8B8B"/>
<circle cx="79.7861" cy="1" r="1" transform="rotate(-180 79.7861 1)" fill="#8B8B8B"/>
<circle cx="99.4829" cy="1" r="1" transform="rotate(-180 99.4829 1)" fill="#8B8B8B"/>
<circle cx="119.179" cy="1" r="1" transform="rotate(-180 119.179 1)" fill="#8B8B8B"/>
<circle cx="138.876" cy="1" r="1" transform="rotate(-180 138.876 1)" fill="#8B8B8B"/>
<circle cx="158.572" cy="1" r="1" transform="rotate(-180 158.572 1)" fill="#8B8B8B"/>
<circle cx="178.269" cy="1" r="1" transform="rotate(-180 178.269 1)" fill="#8B8B8B"/>
<circle cx="197.965" cy="1" r="1" transform="rotate(-180 197.965 1)" fill="#8B8B8B"/>
<circle cx="217.662" cy="1" r="1" transform="rotate(-180 217.662 1)" fill="#8B8B8B"/>
<circle cx="237.358" cy="1" r="1" transform="rotate(-180 237.358 1)" fill="#8B8B8B"/>
<circle cx="257.055" cy="1" r="1" transform="rotate(-180 257.055 1)" fill="#8B8B8B"/>
<circle cx="276.751" cy="1" r="1" transform="rotate(-180 276.751 1)" fill="#8B8B8B"/>
<circle cx="296.448" cy="1" r="1" transform="rotate(-180 296.448 1)" fill="#8B8B8B"/>
<circle cx="316.145" cy="1" r="1" transform="rotate(-180 316.145 1)" fill="#8B8B8B"/>
<circle cx="335.841" cy="1" r="1" transform="rotate(-180 335.841 1)" fill="#8B8B8B"/>
<circle cx="1" cy="20.6965" r="1" transform="rotate(-180 1 20.6965)" fill="#8B8B8B"/>
<circle cx="20.6963" cy="20.6965" r="1" transform="rotate(-180 20.6963 20.6965)" fill="#8B8B8B"/>
<circle cx="40.3931" cy="20.6965" r="1" transform="rotate(-180 40.3931 20.6965)" fill="#8B8B8B"/>
<circle cx="60.0894" cy="20.6965" r="1" transform="rotate(-180 60.0894 20.6965)" fill="#8B8B8B"/>
<circle cx="79.7861" cy="20.6965" r="1" transform="rotate(-180 79.7861 20.6965)" fill="#8B8B8B"/>
<circle cx="99.4829" cy="20.6965" r="1" transform="rotate(-180 99.4829 20.6965)" fill="#8B8B8B"/>
<circle cx="119.179" cy="20.6965" r="1" transform="rotate(-180 119.179 20.6965)" fill="#8B8B8B"/>
<circle cx="138.876" cy="20.6965" r="1" transform="rotate(-180 138.876 20.6965)" fill="#8B8B8B"/>
<circle cx="158.572" cy="20.6965" r="1" transform="rotate(-180 158.572 20.6965)" fill="#8B8B8B"/>
<circle cx="178.269" cy="20.6965" r="1" transform="rotate(-180 178.269 20.6965)" fill="#8B8B8B"/>
<circle cx="197.965" cy="20.6965" r="1" transform="rotate(-180 197.965 20.6965)" fill="#8B8B8B"/>
<circle cx="217.662" cy="20.6965" r="1" transform="rotate(-180 217.662 20.6965)" fill="#8B8B8B"/>
<circle cx="237.358" cy="20.6965" r="1" transform="rotate(-180 237.358 20.6965)" fill="#8B8B8B"/>
<circle cx="257.055" cy="20.6965" r="1" transform="rotate(-180 257.055 20.6965)" fill="#8B8B8B"/>
<circle cx="276.751" cy="20.6965" r="1" transform="rotate(-180 276.751 20.6965)" fill="#8B8B8B"/>
<circle cx="296.448" cy="20.6965" r="1" transform="rotate(-180 296.448 20.6965)" fill="#8B8B8B"/>
<circle cx="316.145" cy="20.6965" r="1" transform="rotate(-180 316.145 20.6965)" fill="#8B8B8B"/>
<circle cx="335.841" cy="20.6965" r="1" transform="rotate(-180 335.841 20.6965)" fill="#8B8B8B"/>
<circle cx="1" cy="40.3931" r="1" transform="rotate(-180 1 40.3931)" fill="#8B8B8B"/>
<circle cx="20.6963" cy="40.3931" r="1" transform="rotate(-180 20.6963 40.3931)" fill="#8B8B8B"/>
<circle cx="40.3931" cy="40.3931" r="1" transform="rotate(-180 40.3931 40.3931)" fill="#8B8B8B"/>
<circle cx="60.0894" cy="40.3931" r="1" transform="rotate(-180 60.0894 40.3931)" fill="#8B8B8B"/>
<circle cx="79.7861" cy="40.3931" r="1" transform="rotate(-180 79.7861 40.3931)" fill="#8B8B8B"/>
<circle cx="99.4829" cy="40.3931" r="1" transform="rotate(-180 99.4829 40.3931)" fill="#8B8B8B"/>
<circle cx="119.179" cy="40.3931" r="1" transform="rotate(-180 119.179 40.3931)" fill="#8B8B8B"/>
<circle cx="138.876" cy="40.3931" r="1" transform="rotate(-180 138.876 40.3931)" fill="#8B8B8B"/>
<circle cx="158.572" cy="40.3931" r="1" transform="rotate(-180 158.572 40.3931)" fill="#8B8B8B"/>
<circle cx="178.269" cy="40.3931" r="1" transform="rotate(-180 178.269 40.3931)" fill="#8B8B8B"/>
<circle cx="197.965" cy="40.3931" r="1" transform="rotate(-180 197.965 40.3931)" fill="#8B8B8B"/>
<circle cx="217.662" cy="40.3931" r="1" transform="rotate(-180 217.662 40.3931)" fill="#8B8B8B"/>
<circle cx="237.358" cy="40.3931" r="1" transform="rotate(-180 237.358 40.3931)" fill="#8B8B8B"/>
<circle cx="257.055" cy="40.3931" r="1" transform="rotate(-180 257.055 40.3931)" fill="#8B8B8B"/>
<circle cx="276.751" cy="40.3931" r="1" transform="rotate(-180 276.751 40.3931)" fill="#8B8B8B"/>
<circle cx="296.448" cy="40.3931" r="1" transform="rotate(-180 296.448 40.3931)" fill="#8B8B8B"/>
<circle cx="316.145" cy="40.3931" r="1" transform="rotate(-180 316.145 40.3931)" fill="#8B8B8B"/>
<circle cx="335.841" cy="40.3931" r="1" transform="rotate(-180 335.841 40.3931)" fill="#8B8B8B"/>
<circle cx="1" cy="60.0896" r="1" transform="rotate(-180 1 60.0896)" fill="#8B8B8B"/>
<circle cx="20.6963" cy="60.0896" r="1" transform="rotate(-180 20.6963 60.0896)" fill="#8B8B8B"/>
<circle cx="40.3931" cy="60.0896" r="1" transform="rotate(-180 40.3931 60.0896)" fill="#8B8B8B"/>
<circle cx="60.0894" cy="60.0896" r="1" transform="rotate(-180 60.0894 60.0896)" fill="#8B8B8B"/>
<circle cx="79.7861" cy="60.0896" r="1" transform="rotate(-180 79.7861 60.0896)" fill="#8B8B8B"/>
<circle cx="99.4829" cy="60.0896" r="1" transform="rotate(-180 99.4829 60.0896)" fill="#8B8B8B"/>
<circle cx="119.179" cy="60.0896" r="1" transform="rotate(-180 119.179 60.0896)" fill="#8B8B8B"/>
<circle cx="138.876" cy="60.0896" r="1" transform="rotate(-180 138.876 60.0896)" fill="#8B8B8B"/>
<circle cx="158.572" cy="60.0896" r="1" transform="rotate(-180 158.572 60.0896)" fill="#8B8B8B"/>
<circle cx="178.269" cy="60.0896" r="1" transform="rotate(-180 178.269 60.0896)" fill="#8B8B8B"/>
<circle cx="197.965" cy="60.0896" r="1" transform="rotate(-180 197.965 60.0896)" fill="#8B8B8B"/>
<circle cx="217.662" cy="60.0896" r="1" transform="rotate(-180 217.662 60.0896)" fill="#8B8B8B"/>
<circle cx="237.358" cy="60.0896" r="1" transform="rotate(-180 237.358 60.0896)" fill="#8B8B8B"/>
<circle cx="257.055" cy="60.0896" r="1" transform="rotate(-180 257.055 60.0896)" fill="#8B8B8B"/>
<circle cx="276.751" cy="60.0896" r="1" transform="rotate(-180 276.751 60.0896)" fill="#8B8B8B"/>
<circle cx="296.448" cy="60.0896" r="1" transform="rotate(-180 296.448 60.0896)" fill="#8B8B8B"/>
<circle cx="316.145" cy="60.0896" r="1" transform="rotate(-180 316.145 60.0896)" fill="#8B8B8B"/>
<circle cx="335.841" cy="60.0896" r="1" transform="rotate(-180 335.841 60.0896)" fill="#8B8B8B"/>
<circle cx="1" cy="79.7861" r="1" transform="rotate(-180 1 79.7861)" fill="#8B8B8B"/>
<circle cx="20.6963" cy="79.7861" r="1" transform="rotate(-180 20.6963 79.7861)" fill="#8B8B8B"/>
<circle cx="40.3931" cy="79.7861" r="1" transform="rotate(-180 40.3931 79.7861)" fill="#8B8B8B"/>
<circle cx="60.0894" cy="79.7861" r="1" transform="rotate(-180 60.0894 79.7861)" fill="#8B8B8B"/>
<circle cx="79.7861" cy="79.7861" r="1" transform="rotate(-180 79.7861 79.7861)" fill="#8B8B8B"/>
<circle cx="99.4829" cy="79.7861" r="1" transform="rotate(-180 99.4829 79.7861)" fill="#8B8B8B"/>
<circle cx="119.179" cy="79.7861" r="1" transform="rotate(-180 119.179 79.7861)" fill="#8B8B8B"/>
<circle cx="138.876" cy="79.7861" r="1" transform="rotate(-180 138.876 79.7861)" fill="#8B8B8B"/>
<circle cx="158.572" cy="79.7861" r="1" transform="rotate(-180 158.572 79.7861)" fill="#8B8B8B"/>
<circle cx="178.269" cy="79.7861" r="1" transform="rotate(-180 178.269 79.7861)" fill="#8B8B8B"/>
<circle cx="197.965" cy="79.7861" r="1" transform="rotate(-180 197.965 79.7861)" fill="#8B8B8B"/>
<circle cx="217.662" cy="79.7861" r="1" transform="rotate(-180 217.662 79.7861)" fill="#8B8B8B"/>
<circle cx="237.358" cy="79.7861" r="1" transform="rotate(-180 237.358 79.7861)" fill="#8B8B8B"/>
<circle cx="257.055" cy="79.7861" r="1" transform="rotate(-180 257.055 79.7861)" fill="#8B8B8B"/>
<circle cx="276.751" cy="79.7861" r="1" transform="rotate(-180 276.751 79.7861)" fill="#8B8B8B"/>
<circle cx="296.448" cy="79.7861" r="1" transform="rotate(-180 296.448 79.7861)" fill="#8B8B8B"/>
<circle cx="316.145" cy="79.7861" r="1" transform="rotate(-180 316.145 79.7861)" fill="#8B8B8B"/>
<circle cx="335.841" cy="79.7861" r="1" transform="rotate(-180 335.841 79.7861)" fill="#8B8B8B"/>
<circle cx="1" cy="99.4827" r="1" transform="rotate(-180 1 99.4827)" fill="#8B8B8B"/>
<circle cx="20.6963" cy="99.4827" r="1" transform="rotate(-180 20.6963 99.4827)" fill="#8B8B8B"/>
<circle cx="40.3931" cy="99.4827" r="1" transform="rotate(-180 40.3931 99.4827)" fill="#8B8B8B"/>
<circle cx="60.0894" cy="99.4827" r="1" transform="rotate(-180 60.0894 99.4827)" fill="#8B8B8B"/>
<circle cx="79.7861" cy="99.4827" r="1" transform="rotate(-180 79.7861 99.4827)" fill="#8B8B8B"/>
<circle cx="99.4829" cy="99.4827" r="1" transform="rotate(-180 99.4829 99.4827)" fill="#8B8B8B"/>
<circle cx="119.179" cy="99.4827" r="1" transform="rotate(-180 119.179 99.4827)" fill="#8B8B8B"/>
<circle cx="138.876" cy="99.4827" r="1" transform="rotate(-180 138.876 99.4827)" fill="#8B8B8B"/>
<circle cx="158.572" cy="99.4827" r="1" transform="rotate(-180 158.572 99.4827)" fill="#8B8B8B"/>
<circle cx="178.269" cy="99.4827" r="1" transform="rotate(-180 178.269 99.4827)" fill="#8B8B8B"/>
<circle cx="197.965" cy="99.4827" r="1" transform="rotate(-180 197.965 99.4827)" fill="#8B8B8B"/>
<circle cx="217.662" cy="99.4827" r="1" transform="rotate(-180 217.662 99.4827)" fill="#8B8B8B"/>
<circle cx="237.358" cy="99.4827" r="1" transform="rotate(-180 237.358 99.4827)" fill="#8B8B8B"/>
<circle cx="257.055" cy="99.4827" r="1" transform="rotate(-180 257.055 99.4827)" fill="#8B8B8B"/>
<circle cx="276.751" cy="99.4827" r="1" transform="rotate(-180 276.751 99.4827)" fill="#8B8B8B"/>
<circle cx="296.448" cy="99.4827" r="1" transform="rotate(-180 296.448 99.4827)" fill="#8B8B8B"/>
<circle cx="316.145" cy="99.4827" r="1" transform="rotate(-180 316.145 99.4827)" fill="#8B8B8B"/>
<circle cx="335.841" cy="99.4827" r="1" transform="rotate(-180 335.841 99.4827)" fill="#8B8B8B"/>
<circle cx="1" cy="119.179" r="1" transform="rotate(-180 1 119.179)" fill="#8B8B8B"/>
<circle cx="20.6963" cy="119.179" r="1" transform="rotate(-180 20.6963 119.179)" fill="#8B8B8B"/>
<circle cx="40.3931" cy="119.179" r="1" transform="rotate(-180 40.3931 119.179)" fill="#8B8B8B"/>
<circle cx="60.0894" cy="119.179" r="1" transform="rotate(-180 60.0894 119.179)" fill="#8B8B8B"/>
<circle cx="79.7861" cy="119.179" r="1" transform="rotate(-180 79.7861 119.179)" fill="#8B8B8B"/>
<circle cx="99.4829" cy="119.179" r="1" transform="rotate(-180 99.4829 119.179)" fill="#8B8B8B"/>
<circle cx="119.179" cy="119.179" r="1" transform="rotate(-180 119.179 119.179)" fill="#8B8B8B"/>
<circle cx="138.876" cy="119.179" r="1" transform="rotate(-180 138.876 119.179)" fill="#8B8B8B"/>
<circle cx="158.572" cy="119.179" r="1" transform="rotate(-180 158.572 119.179)" fill="#8B8B8B"/>
<circle cx="178.269" cy="119.179" r="1" transform="rotate(-180 178.269 119.179)" fill="#8B8B8B"/>
<circle cx="197.965" cy="119.179" r="1" transform="rotate(-180 197.965 119.179)" fill="#8B8B8B"/>
<circle cx="217.662" cy="119.179" r="1" transform="rotate(-180 217.662 119.179)" fill="#8B8B8B"/>
<circle cx="237.358" cy="119.179" r="1" transform="rotate(-180 237.358 119.179)" fill="#8B8B8B"/>
<circle cx="257.055" cy="119.179" r="1" transform="rotate(-180 257.055 119.179)" fill="#8B8B8B"/>
<circle cx="276.751" cy="119.179" r="1" transform="rotate(-180 276.751 119.179)" fill="#8B8B8B"/>
<circle cx="296.448" cy="119.179" r="1" transform="rotate(-180 296.448 119.179)" fill="#8B8B8B"/>
<circle cx="316.145" cy="119.179" r="1" transform="rotate(-180 316.145 119.179)" fill="#8B8B8B"/>
<circle cx="335.841" cy="119.179" r="1" transform="rotate(-180 335.841 119.179)" fill="#8B8B8B"/>
<circle cx="1" cy="138.876" r="1" transform="rotate(-180 1 138.876)" fill="#8B8B8B"/>
<circle cx="20.6963" cy="138.876" r="1" transform="rotate(-180 20.6963 138.876)" fill="#8B8B8B"/>
<circle cx="40.3931" cy="138.876" r="1" transform="rotate(-180 40.3931 138.876)" fill="#8B8B8B"/>
<circle cx="60.0894" cy="138.876" r="1" transform="rotate(-180 60.0894 138.876)" fill="#8B8B8B"/>
<circle cx="79.7861" cy="138.876" r="1" transform="rotate(-180 79.7861 138.876)" fill="#8B8B8B"/>
<circle cx="99.4829" cy="138.876" r="1" transform="rotate(-180 99.4829 138.876)" fill="#8B8B8B"/>
<circle cx="119.179" cy="138.876" r="1" transform="rotate(-180 119.179 138.876)" fill="#8B8B8B"/>
<circle cx="138.876" cy="138.876" r="1" transform="rotate(-180 138.876 138.876)" fill="#8B8B8B"/>
<circle cx="158.572" cy="138.876" r="1" transform="rotate(-180 158.572 138.876)" fill="#8B8B8B"/>
<circle cx="178.269" cy="138.876" r="1" transform="rotate(-180 178.269 138.876)" fill="#8B8B8B"/>
<circle cx="197.965" cy="138.876" r="1" transform="rotate(-180 197.965 138.876)" fill="#8B8B8B"/>
<circle cx="217.662" cy="138.876" r="1" transform="rotate(-180 217.662 138.876)" fill="#8B8B8B"/>
<circle cx="237.358" cy="138.876" r="1" transform="rotate(-180 237.358 138.876)" fill="#8B8B8B"/>
<circle cx="257.055" cy="138.876" r="1" transform="rotate(-180 257.055 138.876)" fill="#8B8B8B"/>
<circle cx="276.751" cy="138.876" r="1" transform="rotate(-180 276.751 138.876)" fill="#8B8B8B"/>
<circle cx="296.448" cy="138.876" r="1" transform="rotate(-180 296.448 138.876)" fill="#8B8B8B"/>
<circle cx="316.145" cy="138.876" r="1" transform="rotate(-180 316.145 138.876)" fill="#8B8B8B"/>
<circle cx="335.841" cy="138.876" r="1" transform="rotate(-180 335.841 138.876)" fill="#8B8B8B"/>
<circle cx="1" cy="158.572" r="1" transform="rotate(-180 1 158.572)" fill="#8B8B8B"/>
<circle cx="20.6963" cy="158.572" r="1" transform="rotate(-180 20.6963 158.572)" fill="#8B8B8B"/>
<circle cx="40.3931" cy="158.572" r="1" transform="rotate(-180 40.3931 158.572)" fill="#8B8B8B"/>
<circle cx="60.0894" cy="158.572" r="1" transform="rotate(-180 60.0894 158.572)" fill="#8B8B8B"/>
<circle cx="79.7861" cy="158.572" r="1" transform="rotate(-180 79.7861 158.572)" fill="#8B8B8B"/>
<circle cx="99.4829" cy="158.572" r="1" transform="rotate(-180 99.4829 158.572)" fill="#8B8B8B"/>
<circle cx="119.179" cy="158.572" r="1" transform="rotate(-180 119.179 158.572)" fill="#8B8B8B"/>
<circle cx="138.876" cy="158.572" r="1" transform="rotate(-180 138.876 158.572)" fill="#8B8B8B"/>
<circle cx="158.572" cy="158.572" r="1" transform="rotate(-180 158.572 158.572)" fill="#8B8B8B"/>
<circle cx="178.269" cy="158.572" r="1" transform="rotate(-180 178.269 158.572)" fill="#8B8B8B"/>
<circle cx="197.965" cy="158.572" r="1" transform="rotate(-180 197.965 158.572)" fill="#8B8B8B"/>
<circle cx="217.662" cy="158.572" r="1" transform="rotate(-180 217.662 158.572)" fill="#8B8B8B"/>
<circle cx="237.358" cy="158.572" r="1" transform="rotate(-180 237.358 158.572)" fill="#8B8B8B"/>
<circle cx="257.055" cy="158.572" r="1" transform="rotate(-180 257.055 158.572)" fill="#8B8B8B"/>
<circle cx="276.751" cy="158.572" r="1" transform="rotate(-180 276.751 158.572)" fill="#8B8B8B"/>
<circle cx="296.448" cy="158.572" r="1" transform="rotate(-180 296.448 158.572)" fill="#8B8B8B"/>
<circle cx="316.145" cy="158.572" r="1" transform="rotate(-180 316.145 158.572)" fill="#8B8B8B"/>
<circle cx="335.841" cy="158.572" r="1" transform="rotate(-180 335.841 158.572)" fill="#8B8B8B"/>
<circle cx="1" cy="178.269" r="1" transform="rotate(-180 1 178.269)" fill="#8B8B8B"/>
<circle cx="20.6963" cy="178.269" r="1" transform="rotate(-180 20.6963 178.269)" fill="#8B8B8B"/>
<circle cx="40.3931" cy="178.269" r="1" transform="rotate(-180 40.3931 178.269)" fill="#8B8B8B"/>
<circle cx="60.0894" cy="178.269" r="1" transform="rotate(-180 60.0894 178.269)" fill="#8B8B8B"/>
<circle cx="79.7861" cy="178.269" r="1" transform="rotate(-180 79.7861 178.269)" fill="#8B8B8B"/>
<circle cx="99.4829" cy="178.269" r="1" transform="rotate(-180 99.4829 178.269)" fill="#8B8B8B"/>
<circle cx="119.179" cy="178.269" r="1" transform="rotate(-180 119.179 178.269)" fill="#8B8B8B"/>
<circle cx="138.876" cy="178.269" r="1" transform="rotate(-180 138.876 178.269)" fill="#8B8B8B"/>
<circle cx="158.572" cy="178.269" r="1" transform="rotate(-180 158.572 178.269)" fill="#8B8B8B"/>
<circle cx="178.269" cy="178.269" r="1" transform="rotate(-180 178.269 178.269)" fill="#8B8B8B"/>
<circle cx="197.965" cy="178.269" r="1" transform="rotate(-180 197.965 178.269)" fill="#8B8B8B"/>
<circle cx="217.662" cy="178.269" r="1" transform="rotate(-180 217.662 178.269)" fill="#8B8B8B"/>
<circle cx="237.358" cy="178.269" r="1" transform="rotate(-180 237.358 178.269)" fill="#8B8B8B"/>
<circle cx="257.055" cy="178.269" r="1" transform="rotate(-180 257.055 178.269)" fill="#8B8B8B"/>
<circle cx="276.751" cy="178.269" r="1" transform="rotate(-180 276.751 178.269)" fill="#8B8B8B"/>
<circle cx="296.448" cy="178.269" r="1" transform="rotate(-180 296.448 178.269)" fill="#8B8B8B"/>
<circle cx="316.145" cy="178.269" r="1" transform="rotate(-180 316.145 178.269)" fill="#8B8B8B"/>
<circle cx="335.841" cy="178.269" r="1" transform="rotate(-180 335.841 178.269)" fill="#8B8B8B"/>
<circle cx="1" cy="197.965" r="1" transform="rotate(-180 1 197.965)" fill="#8B8B8B"/>
<circle cx="20.6963" cy="197.965" r="1" transform="rotate(-180 20.6963 197.965)" fill="#8B8B8B"/>
<circle cx="40.3931" cy="197.965" r="1" transform="rotate(-180 40.3931 197.965)" fill="#8B8B8B"/>
<circle cx="60.0894" cy="197.965" r="1" transform="rotate(-180 60.0894 197.965)" fill="#8B8B8B"/>
<circle cx="79.7861" cy="197.965" r="1" transform="rotate(-180 79.7861 197.965)" fill="#8B8B8B"/>
<circle cx="99.4829" cy="197.965" r="1" transform="rotate(-180 99.4829 197.965)" fill="#8B8B8B"/>
<circle cx="119.179" cy="197.965" r="1" transform="rotate(-180 119.179 197.965)" fill="#8B8B8B"/>
<circle cx="138.876" cy="197.965" r="1" transform="rotate(-180 138.876 197.965)" fill="#8B8B8B"/>
<circle cx="158.572" cy="197.965" r="1" transform="rotate(-180 158.572 197.965)" fill="#8B8B8B"/>
<circle cx="178.269" cy="197.965" r="1" transform="rotate(-180 178.269 197.965)" fill="#8B8B8B"/>
<circle cx="197.965" cy="197.965" r="1" transform="rotate(-180 197.965 197.965)" fill="#8B8B8B"/>
<circle cx="217.662" cy="197.965" r="1" transform="rotate(-180 217.662 197.965)" fill="#8B8B8B"/>
<circle cx="237.358" cy="197.965" r="1" transform="rotate(-180 237.358 197.965)" fill="#8B8B8B"/>
<circle cx="257.055" cy="197.965" r="1" transform="rotate(-180 257.055 197.965)" fill="#8B8B8B"/>
<circle cx="276.751" cy="197.965" r="1" transform="rotate(-180 276.751 197.965)" fill="#8B8B8B"/>
<circle cx="296.448" cy="197.965" r="1" transform="rotate(-180 296.448 197.965)" fill="#8B8B8B"/>
<circle cx="316.145" cy="197.965" r="1" transform="rotate(-180 316.145 197.965)" fill="#8B8B8B"/>
<circle cx="335.841" cy="197.965" r="1" transform="rotate(-180 335.841 197.965)" fill="#8B8B8B"/>
<circle cx="1" cy="217.662" r="1" transform="rotate(-180 1 217.662)" fill="#8B8B8B"/>
<circle cx="20.6963" cy="217.662" r="1" transform="rotate(-180 20.6963 217.662)" fill="#8B8B8B"/>
<circle cx="40.3931" cy="217.662" r="1" transform="rotate(-180 40.3931 217.662)" fill="#8B8B8B"/>
<circle cx="60.0894" cy="217.662" r="1" transform="rotate(-180 60.0894 217.662)" fill="#8B8B8B"/>
<circle cx="79.7861" cy="217.662" r="1" transform="rotate(-180 79.7861 217.662)" fill="#8B8B8B"/>
<circle cx="99.4829" cy="217.662" r="1" transform="rotate(-180 99.4829 217.662)" fill="#8B8B8B"/>
<circle cx="119.179" cy="217.662" r="1" transform="rotate(-180 119.179 217.662)" fill="#8B8B8B"/>
<circle cx="138.876" cy="217.662" r="1" transform="rotate(-180 138.876 217.662)" fill="#8B8B8B"/>
<circle cx="158.572" cy="217.662" r="1" transform="rotate(-180 158.572 217.662)" fill="#8B8B8B"/>
<circle cx="178.269" cy="217.662" r="1" transform="rotate(-180 178.269 217.662)" fill="#8B8B8B"/>
<circle cx="197.965" cy="217.662" r="1" transform="rotate(-180 197.965 217.662)" fill="#8B8B8B"/>
<circle cx="217.662" cy="217.662" r="1" transform="rotate(-180 217.662 217.662)" fill="#8B8B8B"/>
<circle cx="237.358" cy="217.662" r="1" transform="rotate(-180 237.358 217.662)" fill="#8B8B8B"/>
<circle cx="257.055" cy="217.662" r="1" transform="rotate(-180 257.055 217.662)" fill="#8B8B8B"/>
<circle cx="276.751" cy="217.662" r="1" transform="rotate(-180 276.751 217.662)" fill="#8B8B8B"/>
<circle cx="296.448" cy="217.662" r="1" transform="rotate(-180 296.448 217.662)" fill="#8B8B8B"/>
<circle cx="316.145" cy="217.662" r="1" transform="rotate(-180 316.145 217.662)" fill="#8B8B8B"/>
<circle cx="335.841" cy="217.662" r="1" transform="rotate(-180 335.841 217.662)" fill="#8B8B8B"/>
<circle cx="1" cy="237.359" r="1" transform="rotate(-180 1 237.359)" fill="#8B8B8B"/>
<circle cx="20.6963" cy="237.359" r="1" transform="rotate(-180 20.6963 237.359)" fill="#8B8B8B"/>
<circle cx="40.3931" cy="237.359" r="1" transform="rotate(-180 40.3931 237.359)" fill="#8B8B8B"/>
<circle cx="60.0894" cy="237.359" r="1" transform="rotate(-180 60.0894 237.359)" fill="#8B8B8B"/>
<circle cx="79.7861" cy="237.359" r="1" transform="rotate(-180 79.7861 237.359)" fill="#8B8B8B"/>
<circle cx="99.4829" cy="237.359" r="1" transform="rotate(-180 99.4829 237.359)" fill="#8B8B8B"/>
<circle cx="119.179" cy="237.359" r="1" transform="rotate(-180 119.179 237.359)" fill="#8B8B8B"/>
<circle cx="138.876" cy="237.359" r="1" transform="rotate(-180 138.876 237.359)" fill="#8B8B8B"/>
<circle cx="158.572" cy="237.359" r="1" transform="rotate(-180 158.572 237.359)" fill="#8B8B8B"/>
<circle cx="178.269" cy="237.359" r="1" transform="rotate(-180 178.269 237.359)" fill="#8B8B8B"/>
<circle cx="197.965" cy="237.359" r="1" transform="rotate(-180 197.965 237.359)" fill="#8B8B8B"/>
<circle cx="217.662" cy="237.359" r="1" transform="rotate(-180 217.662 237.359)" fill="#8B8B8B"/>
<circle cx="237.358" cy="237.359" r="1" transform="rotate(-180 237.358 237.359)" fill="#8B8B8B"/>
<circle cx="257.055" cy="237.359" r="1" transform="rotate(-180 257.055 237.359)" fill="#8B8B8B"/>
<circle cx="276.751" cy="237.359" r="1" transform="rotate(-180 276.751 237.359)" fill="#8B8B8B"/>
<circle cx="296.448" cy="237.359" r="1" transform="rotate(-180 296.448 237.359)" fill="#8B8B8B"/>
<circle cx="316.145" cy="237.359" r="1" transform="rotate(-180 316.145 237.359)" fill="#8B8B8B"/>
<circle cx="335.841" cy="237.359" r="1" transform="rotate(-180 335.841 237.359)" fill="#8B8B8B"/>
<circle cx="1" cy="257.055" r="1" transform="rotate(-180 1 257.055)" fill="#8B8B8B"/>
<circle cx="20.6963" cy="257.055" r="1" transform="rotate(-180 20.6963 257.055)" fill="#8B8B8B"/>
<circle cx="40.3931" cy="257.055" r="1" transform="rotate(-180 40.3931 257.055)" fill="#8B8B8B"/>
<circle cx="60.0894" cy="257.055" r="1" transform="rotate(-180 60.0894 257.055)" fill="#8B8B8B"/>
<circle cx="79.7861" cy="257.055" r="1" transform="rotate(-180 79.7861 257.055)" fill="#8B8B8B"/>
<circle cx="99.4829" cy="257.055" r="1" transform="rotate(-180 99.4829 257.055)" fill="#8B8B8B"/>
<circle cx="119.179" cy="257.055" r="1" transform="rotate(-180 119.179 257.055)" fill="#8B8B8B"/>
<circle cx="138.876" cy="257.055" r="1" transform="rotate(-180 138.876 257.055)" fill="#8B8B8B"/>
<circle cx="158.572" cy="257.055" r="1" transform="rotate(-180 158.572 257.055)" fill="#8B8B8B"/>
<circle cx="178.269" cy="257.055" r="1" transform="rotate(-180 178.269 257.055)" fill="#8B8B8B"/>
<circle cx="197.965" cy="257.055" r="1" transform="rotate(-180 197.965 257.055)" fill="#8B8B8B"/>
<circle cx="217.662" cy="257.055" r="1" transform="rotate(-180 217.662 257.055)" fill="#8B8B8B"/>
<circle cx="237.358" cy="257.055" r="1" transform="rotate(-180 237.358 257.055)" fill="#8B8B8B"/>
<circle cx="257.055" cy="257.055" r="1" transform="rotate(-180 257.055 257.055)" fill="#8B8B8B"/>
<circle cx="276.751" cy="257.055" r="1" transform="rotate(-180 276.751 257.055)" fill="#8B8B8B"/>
<circle cx="296.448" cy="257.055" r="1" transform="rotate(-180 296.448 257.055)" fill="#8B8B8B"/>
<circle cx="316.145" cy="257.055" r="1" transform="rotate(-180 316.145 257.055)" fill="#8B8B8B"/>
<circle cx="335.841" cy="257.055" r="1" transform="rotate(-180 335.841 257.055)" fill="#8B8B8B"/>
<circle cx="1" cy="276.752" r="1" transform="rotate(-180 1 276.752)" fill="#8B8B8B"/>
<circle cx="20.6963" cy="276.752" r="1" transform="rotate(-180 20.6963 276.752)" fill="#8B8B8B"/>
<circle cx="40.3931" cy="276.752" r="1" transform="rotate(-180 40.3931 276.752)" fill="#8B8B8B"/>
<circle cx="60.0894" cy="276.752" r="1" transform="rotate(-180 60.0894 276.752)" fill="#8B8B8B"/>
<circle cx="79.7861" cy="276.752" r="1" transform="rotate(-180 79.7861 276.752)" fill="#8B8B8B"/>
<circle cx="99.4829" cy="276.752" r="1" transform="rotate(-180 99.4829 276.752)" fill="#8B8B8B"/>
<circle cx="119.179" cy="276.752" r="1" transform="rotate(-180 119.179 276.752)" fill="#8B8B8B"/>
<circle cx="138.876" cy="276.752" r="1" transform="rotate(-180 138.876 276.752)" fill="#8B8B8B"/>
<circle cx="158.572" cy="276.752" r="1" transform="rotate(-180 158.572 276.752)" fill="#8B8B8B"/>
<circle cx="178.269" cy="276.752" r="1" transform="rotate(-180 178.269 276.752)" fill="#8B8B8B"/>
<circle cx="197.965" cy="276.752" r="1" transform="rotate(-180 197.965 276.752)" fill="#8B8B8B"/>
<circle cx="217.662" cy="276.752" r="1" transform="rotate(-180 217.662 276.752)" fill="#8B8B8B"/>
<circle cx="237.358" cy="276.752" r="1" transform="rotate(-180 237.358 276.752)" fill="#8B8B8B"/>
<circle cx="257.055" cy="276.752" r="1" transform="rotate(-180 257.055 276.752)" fill="#8B8B8B"/>
<circle cx="276.751" cy="276.752" r="1" transform="rotate(-180 276.751 276.752)" fill="#8B8B8B"/>
<circle cx="296.448" cy="276.752" r="1" transform="rotate(-180 296.448 276.752)" fill="#8B8B8B"/>
<circle cx="316.145" cy="276.752" r="1" transform="rotate(-180 316.145 276.752)" fill="#8B8B8B"/>
<circle cx="335.841" cy="276.752" r="1" transform="rotate(-180 335.841 276.752)" fill="#8B8B8B"/>
<circle cx="1" cy="296.448" r="1" transform="rotate(-180 1 296.448)" fill="#8B8B8B"/>
<circle cx="20.6963" cy="296.448" r="1" transform="rotate(-180 20.6963 296.448)" fill="#8B8B8B"/>
<circle cx="40.3931" cy="296.448" r="1" transform="rotate(-180 40.3931 296.448)" fill="#8B8B8B"/>
<circle cx="60.0894" cy="296.448" r="1" transform="rotate(-180 60.0894 296.448)" fill="#8B8B8B"/>
<circle cx="79.7861" cy="296.448" r="1" transform="rotate(-180 79.7861 296.448)" fill="#8B8B8B"/>
<circle cx="99.4829" cy="296.448" r="1" transform="rotate(-180 99.4829 296.448)" fill="#8B8B8B"/>
<circle cx="119.179" cy="296.448" r="1" transform="rotate(-180 119.179 296.448)" fill="#8B8B8B"/>
<circle cx="138.876" cy="296.448" r="1" transform="rotate(-180 138.876 296.448)" fill="#8B8B8B"/>
<circle cx="158.572" cy="296.448" r="1" transform="rotate(-180 158.572 296.448)" fill="#8B8B8B"/>
<circle cx="178.269" cy="296.448" r="1" transform="rotate(-180 178.269 296.448)" fill="#8B8B8B"/>
<circle cx="197.965" cy="296.448" r="1" transform="rotate(-180 197.965 296.448)" fill="#8B8B8B"/>
<circle cx="217.662" cy="296.448" r="1" transform="rotate(-180 217.662 296.448)" fill="#8B8B8B"/>
<circle cx="237.358" cy="296.448" r="1" transform="rotate(-180 237.358 296.448)" fill="#8B8B8B"/>
<circle cx="257.055" cy="296.448" r="1" transform="rotate(-180 257.055 296.448)" fill="#8B8B8B"/>
<circle cx="276.751" cy="296.448" r="1" transform="rotate(-180 276.751 296.448)" fill="#8B8B8B"/>
<circle cx="296.448" cy="296.448" r="1" transform="rotate(-180 296.448 296.448)" fill="#8B8B8B"/>
<circle cx="316.145" cy="296.448" r="1" transform="rotate(-180 316.145 296.448)" fill="#8B8B8B"/>
<circle cx="335.841" cy="296.448" r="1" transform="rotate(-180 335.841 296.448)" fill="#8B8B8B"/>
<circle cx="1" cy="316.145" r="1" transform="rotate(-180 1 316.145)" fill="#8B8B8B"/>
<circle cx="20.6963" cy="316.145" r="1" transform="rotate(-180 20.6963 316.145)" fill="#8B8B8B"/>
<circle cx="40.3931" cy="316.145" r="1" transform="rotate(-180 40.3931 316.145)" fill="#8B8B8B"/>
<circle cx="60.0894" cy="316.145" r="1" transform="rotate(-180 60.0894 316.145)" fill="#8B8B8B"/>
<circle cx="79.7861" cy="316.145" r="1" transform="rotate(-180 79.7861 316.145)" fill="#8B8B8B"/>
<circle cx="99.4829" cy="316.145" r="1" transform="rotate(-180 99.4829 316.145)" fill="#8B8B8B"/>
<circle cx="119.179" cy="316.145" r="1" transform="rotate(-180 119.179 316.145)" fill="#8B8B8B"/>
<circle cx="138.876" cy="316.145" r="1" transform="rotate(-180 138.876 316.145)" fill="#8B8B8B"/>
<circle cx="158.572" cy="316.145" r="1" transform="rotate(-180 158.572 316.145)" fill="#8B8B8B"/>
<circle cx="178.269" cy="316.145" r="1" transform="rotate(-180 178.269 316.145)" fill="#8B8B8B"/>
<circle cx="197.965" cy="316.145" r="1" transform="rotate(-180 197.965 316.145)" fill="#8B8B8B"/>
<circle cx="217.662" cy="316.145" r="1" transform="rotate(-180 217.662 316.145)" fill="#8B8B8B"/>
<circle cx="237.358" cy="316.145" r="1" transform="rotate(-180 237.358 316.145)" fill="#8B8B8B"/>
<circle cx="257.055" cy="316.145" r="1" transform="rotate(-180 257.055 316.145)" fill="#8B8B8B"/>
<circle cx="276.751" cy="316.145" r="1" transform="rotate(-180 276.751 316.145)" fill="#8B8B8B"/>
<circle cx="296.448" cy="316.145" r="1" transform="rotate(-180 296.448 316.145)" fill="#8B8B8B"/>
<circle cx="316.145" cy="316.145" r="1" transform="rotate(-180 316.145 316.145)" fill="#8B8B8B"/>
<circle cx="335.841" cy="316.145" r="1" transform="rotate(-180 335.841 316.145)" fill="#8B8B8B"/>
<circle cx="1" cy="335.841" r="1" transform="rotate(-180 1 335.841)" fill="#8B8B8B"/>
<circle cx="20.6963" cy="335.841" r="1" transform="rotate(-180 20.6963 335.841)" fill="#8B8B8B"/>
<circle cx="40.3931" cy="335.841" r="1" transform="rotate(-180 40.3931 335.841)" fill="#8B8B8B"/>
<circle cx="60.0894" cy="335.841" r="1" transform="rotate(-180 60.0894 335.841)" fill="#8B8B8B"/>
<circle cx="79.7861" cy="335.841" r="1" transform="rotate(-180 79.7861 335.841)" fill="#8B8B8B"/>
<circle cx="99.4829" cy="335.841" r="1" transform="rotate(-180 99.4829 335.841)" fill="#8B8B8B"/>
<circle cx="119.179" cy="335.841" r="1" transform="rotate(-180 119.179 335.841)" fill="#8B8B8B"/>
<circle cx="138.876" cy="335.841" r="1" transform="rotate(-180 138.876 335.841)" fill="#8B8B8B"/>
<circle cx="158.572" cy="335.841" r="1" transform="rotate(-180 158.572 335.841)" fill="#8B8B8B"/>
<circle cx="178.269" cy="335.841" r="1" transform="rotate(-180 178.269 335.841)" fill="#8B8B8B"/>
<circle cx="197.965" cy="335.841" r="1" transform="rotate(-180 197.965 335.841)" fill="#8B8B8B"/>
<circle cx="217.662" cy="335.841" r="1" transform="rotate(-180 217.662 335.841)" fill="#8B8B8B"/>
<circle cx="237.358" cy="335.841" r="1" transform="rotate(-180 237.358 335.841)" fill="#8B8B8B"/>
<circle cx="257.055" cy="335.841" r="1" transform="rotate(-180 257.055 335.841)" fill="#8B8B8B"/>
<circle cx="276.751" cy="335.841" r="1" transform="rotate(-180 276.751 335.841)" fill="#8B8B8B"/>
<circle cx="296.448" cy="335.841" r="1" transform="rotate(-180 296.448 335.841)" fill="#8B8B8B"/>
<circle cx="316.145" cy="335.841" r="1" transform="rotate(-180 316.145 335.841)" fill="#8B8B8B"/>
<circle cx="335.841" cy="335.841" r="1" transform="rotate(-180 335.841 335.841)" fill="#8B8B8B"/>
</svg>
