<?xml version="1.0" encoding="utf-8"?>
<!-- Generator: Adobe Illustrator 25.4.1, SVG Export Plug-In . SVG Version: 6.00 Build 0)  -->
<svg version="1.1" id="Layer_1" xmlns="http://www.w3.org/2000/svg" xmlns:xlink="http://www.w3.org/1999/xlink" x="0px" y="0px"
	 viewBox="0 0 140 28" style="enable-background:new 0 0 140 28;" xml:space="preserve">
<style type="text/css">
	.st0{fill:#17B5CB;}
	.st1{clip-path:url(#SVGID_00000119084188860682437090000003785456813942026167_);}
</style>
<g>
	<path class="st0" d="M39.3,7.7h1.8c0.4,0,0.7,0.2,0.9,0.4l3.9,4.8l3.9-4.8c0.2-0.3,0.6-0.4,0.9-0.4h1.8V20h-2.7v-8.1l-4,5l-4-5V20
		h-2.7V7.7z"/>
	<path class="st0" d="M55.7,7.7h1.8c0.4,0,0.7,0.2,0.9,0.4l3.9,4.8l3.9-4.8c0.2-0.3,0.6-0.4,0.9-0.4H69V20h-2.7v-8.1l-4,5l-4-5V20
		h-2.7V7.7z"/>
	<path class="st0" d="M82.5,14.9V7.7h-1.8c-0.5,0-0.8,0.4-0.8,0.8v6.4c0,1.8-1.1,2.9-2.8,2.9c-1.6,0-2.8-1.1-2.8-2.9V8.5
		c0-0.5-0.4-0.8-0.8-0.8h-1.8v7.2c0,2.5,1.4,4.5,3.6,5.1c0.6,0.2,1.2,0.3,1.8,0.3c0.6,0,1.3-0.1,1.8-0.3
		C81.1,19.4,82.5,17.4,82.5,14.9z"/>
	<path class="st0" d="M94.1,10.1V7.7h-9.8v2.5h3.5V20h2.7v-9.9H94.1z"/>
	<path class="st0" d="M98.5,8.4L93.9,20h2.8l1.1-2.8h4.8l1.1,2.8h2.8l-4.5-11.6c-0.2-0.5-0.6-0.8-1.1-0.8h-1.3
		C99.1,7.7,98.7,7.9,98.5,8.4z M98.8,14.8l1.5-4.1h0.1l1.5,4.1H98.8z"/>
	<path class="st0" d="M118.1,16.5c0-1.2-0.6-1.9-1.1-2.4c-0.4-0.3-0.7-0.5-1.1-0.6c0.3-0.1,0.6-0.3,0.8-0.6c0.4-0.4,0.8-1,0.8-2
		c0-1.8-1.5-3.3-4-3.3h-5.2V20h5.6C116.5,20,118.1,18.4,118.1,16.5z M110.9,10h2.4c0.9,0,1.4,0.5,1.4,1.2c0,0.7-0.5,1.2-1.4,1.2
		h-2.4V10z M113.7,17.7h-2.8v-3h2.8c1.1,0,1.7,0.6,1.7,1.5C115.4,17.1,114.7,17.7,113.7,17.7z"/>
	<path class="st0" d="M123,17.5V8.5c0-0.5-0.4-0.8-0.8-0.8h-1.8V20h8.4v-2.5H123z"/>
	<path class="st0" d="M131.4,7.7h8.4v2.5h-6.6v2.4h5.2v2.4h-5.2v2.7h6.7v2.5h-8.6c-0.5,0-0.8-0.4-0.8-0.8V8.5
		C130.6,8,131,7.7,131.4,7.7z"/>
	<path class="st0" d="M33.8,11.1l2.6-1.5v-2h-1.8c-0.5,0-0.8,0.4-0.8,0.8L33.8,11.1L33.8,11.1z"/>
	<path class="st0" d="M33.8,12.7L33.8,12.7L33.7,20h2.7v-8.8L33.8,12.7z"/>
	<path class="st0" d="M25.3,8.1v7.1c0,0.8-0.4,1.5-1.1,1.9L14,23v-3.1l8.2-4.7c0.3-0.1,0.4-0.4,0.4-0.7V5.4l1.6,0.9
		C24.9,6.7,25.3,7.4,25.3,8.1z"/>
	<path class="st0" d="M11.3,24.9V28L1.1,22.1C0.4,21.7,0,21,0,20.2v-7.1c0-0.8,0.4-1.5,1.1-1.9l7.2-4.2L11,8.6l-7.9,4.6
		c-0.3,0.1-0.4,0.4-0.4,0.7v5.5c0,0.3,0.1,0.6,0.4,0.7L11.3,24.9z"/>
	<path class="st0" d="M25.3,18.4v1.8c0,0.8-0.4,1.5-1.1,1.9L14,28v-3.1L25.3,18.4z"/>
	<path class="st0" d="M16.6,6.9V10L8.7,5.4c-0.3-0.1-0.6-0.1-0.8,0L0,10V8.1c0-0.8,0.4-1.5,1.1-1.9l6.2-3.5c0.7-0.4,1.5-0.4,2.2,0
		L16.6,6.9z"/>
	<path class="st0" d="M11.3,19.9V23l-7-4v-4.6L7,12.8v4.6L11.3,19.9z"/>
	<path class="st0" d="M19.9,3.8C20.6,4.2,21,4.9,21,5.7V14l-2.7,1.5V6.5c0-0.3-0.1-0.6-0.4-0.7L10,1.2l1.6-0.9
		c0.7-0.4,1.5-0.4,2.2,0L19.9,3.8z"/>
</g>
<g>
	<defs>
		<rect id="SVGID_1_" x="241.8" y="-261.8" width="139" height="113"/>
	</defs>
	<clipPath id="SVGID_00000178895676600430023720000010429103869165812671_">
		<use xlink:href="#SVGID_1_"  style="overflow:visible;"/>
	</clipPath>
	<g style="clip-path:url(#SVGID_00000178895676600430023720000010429103869165812671_);">
		<path class="st0" d="M365.9-261.8h14.6l-59.2,67.6c-1.5,1.7-1.6,4.3-0.1,6.1l34.1,39.7h-15.2l-31.5-36.8l-1.6-2
			c-1.5-1.7-1.4-4.4,0.1-6.1L365.9-261.8z"/>
		<path class="st0" d="M333.1-188.1c-1-1.1-1.3-2.7-1-4.1c0.3-0.8,0.8-1.6,1.4-2.2l3.9-4.4l43.5,50.3H367
			C367-148.4,341.6-178.2,333.1-188.1z"/>
		<path class="st0" d="M257-148.4h-15.2l46.6-53.9c1.5-1.7,1.5-4.3,0-6l-46.2-53.5h14.6l46.5,53.9c1.2,1.6,1.4,3.9,0.1,5.4
			C291.2-188.4,257-148.4,257-148.4z"/>
		<path class="st0" d="M282.5-261.8h-14l43.1,49.9c0,0,0.1-0.1,4.9-5.8c1.3-1.5,1.6-3.4,0.1-4.9
			C307.5-231.9,282.5-261.8,282.5-261.8z"/>
		<path class="st0" d="M324.4-227l29.9-34.8h-14.1l-15.6,18.2l-4.5,5.3c-1.5,1.7-1.6,4.3-0.1,6.1C321.1-230.9,324.4-227,324.4-227z"
			/>
		<path class="st0" d="M298.5-183.2l-29.9,34.8h14.1l15.6-18.2l4.5-5.3c1.5-1.7,1.6-4.3,0.1-6.1
			C301.8-179.3,298.5-183.2,298.5-183.2z"/>
	</g>
</g>
</svg>
