<?xml version="1.0" encoding="UTF-8"?>
<svg width="266px" height="64px" viewBox="0 0 266 64" version="1.1" xmlns="http://www.w3.org/2000/svg" xmlns:xlink="http://www.w3.org/1999/xlink">
    <title>Group 15</title>
    <g id="Brand-Assets" stroke="none" stroke-width="1" fill="none" fill-rule="evenodd">
        <g id="human-brandpage" transform="translate(-1027.000000, -900.000000)" fill="#FFFFFF">
            <g id="Group-2" transform="translate(920.000000, 629.000000)">
                <g id="Group-15" transform="translate(107.000000, 271.000000)">
                    <path d="M37.5245241,2.10422069 C36.1032828,1.63028966 34.6820414,1.15635862 33.2994207,0.682427586 C31.5620414,0.0507034483 29.8638345,1.8278069 29.9432828,4.15773793 C30.1010759,8.58035862 30.258869,12.9632552 30.4166621,17.3858759 C30.4563862,18.8468414 29.7452138,20.1897379 28.6395586,20.7425655 C26.4288,21.8084966 24.1777655,22.8352552 21.926731,23.8620138 C19.6756966,22.8749793 17.4252138,21.8084966 15.2139034,20.7425655 C14.0685241,20.1897379 13.3976276,18.8468414 13.4373517,17.3858759 C13.5951448,12.9632552 13.7529379,8.58035862 13.910731,4.15773793 C13.9901793,1.78808276 12.2919724,0.0507034483 10.5545931,0.682427586 C9.1328,1.15635862 7.75073103,1.67001379 6.32948966,2.10422069 C5.18411034,2.49925517 4.31569655,3.76270345 4.19707586,5.30256552 C3.80204138,10.5152552 3.36783448,15.7273931 2.9728,20.9003586 C2.85417931,22.3613241 3.52562759,23.7042207 4.63128276,24.2962207 C7.1190069,25.5993931 6.88231724,29.8642207 4.15735172,30.8512552 C2.93362759,31.2860138 2.02493793,32.5097379 1.90631724,33.9707034 C1.27514483,41.9078069 0.642868966,49.8846345 0.0111448276,57.8217379 C-0.107475862,59.3616 0.721765517,60.7833931 2.14355862,61.3362207 C3.84121379,62.0071172 5.57914483,62.6785655 7.31652414,63.3500138 C9.48866207,64.1792552 11.8180414,62.5599448 11.8969379,60.1908414 C12.1336276,53.0438069 12.4100414,45.8962207 12.6472828,38.7094621 C12.6864552,37.2484966 13.5559724,35.9850483 14.7796966,35.5111172 C17.1885241,34.5632552 19.5581793,33.6153931 21.926731,32.5886345 C24.2958345,33.5762207 26.6654897,34.5632552 29.0743172,35.5111172 C30.2980414,35.9850483 31.1675586,37.2484966 31.206731,38.7094621 C31.4439724,45.8570483 31.7198345,53.0040828 31.9570759,60.1908414 C32.0359724,62.5599448 34.3653517,64.139531 36.5374897,63.3500138 C38.274869,62.6785655 40.0128,62.0071172 41.7104552,61.3362207 C43.0925241,60.7833931 43.9614897,59.3616 43.842869,57.8217379 C43.2111448,49.8846345 42.578869,41.9078069 41.9476966,33.9707034 C41.8290759,32.5097379 40.9606621,31.2860138 39.6966621,30.8512552 C36.9716966,29.9039448 36.7350069,25.5993931 39.222731,24.2962207 C40.3675586,23.7042207 40.9998345,22.3221517 40.8812138,20.9003586 C40.4861793,15.6882207 40.0519724,10.475531 39.6569379,5.30256552 C39.5383172,3.76270345 38.6699034,2.45953103 37.5245241,2.10422069" id="Fill-1"></path>
                    <polygon id="Fill-4" points="75.4464 13.1632552 83.5115034 13.1632552 83.5115034 25.5467034 96.4654345 25.5467034 96.4654345 13.1632552 104.53109 13.1632552 104.53109 44.6920828 96.4654345 44.6920828 96.4654345 31.8606345 83.5115034 31.8606345 83.5115034 44.6920828 75.4464 44.6920828"></polygon>
                    <path d="M115.715255,13.1632552 L123.740083,13.1632552 L123.740083,32.0233931 C123.740083,33.8970483 124.269738,35.363531 125.288221,36.4228414 C126.306152,37.4816 127.772634,38.0112552 129.64629,38.0112552 C131.479117,38.0112552 132.9456,37.4816 134.00491,36.463669 C135.064221,35.4451862 135.593324,33.9378759 135.593324,32.0233931 L135.593324,13.1632552 L143.658979,13.1632552 L143.658979,32.5122207 C143.658979,36.463669 142.396083,39.5593931 139.830014,41.7999448 C137.263945,44.0399448 133.882979,45.1400828 129.606014,45.1400828 C127.243531,45.1400828 125.165738,44.8548414 123.414014,44.2440828 C121.621462,43.6327724 120.155531,42.7776 119.055393,41.6366345 C117.955807,40.4962207 117.100083,39.1924966 116.570979,37.6857379 C116.041324,36.1784276 115.755531,34.4267034 115.755531,32.5122207 L115.755531,13.1632552 L115.715255,13.1632552 Z" id="Fill-6"></path>
                    <polygon id="Fill-8" points="154.823559 13.1632552 164.722041 13.1632552 171.606455 28.8868414 171.932524 28.8868414 178.694455 13.1632552 188.633214 13.1632552 188.633214 44.6920828 180.811972 44.6920828 180.811972 32.7974621 181.260524 24.2838069 180.934455 24.2838069 171.769214 44.2440828 162.604524 24.2838069 162.237628 24.2838069 162.685628 32.8791172 162.685628 44.6920828 154.823559 44.6920828"></polygon>
                    <path d="M216.171586,33.7342897 L215.234759,30.8013241 L212.708966,21.6360828 L212.423724,21.6360828 L209.694897,30.8013241 L208.757517,33.7342897 L216.171586,33.7342897 Z M207.698759,13.1632552 L217.107862,13.1632552 L228.513655,44.6920828 L219.633655,44.6920828 L218.126897,39.9257379 L206.761379,39.9257379 L205.213793,44.6920828 L196.862897,44.6920828 L207.698759,13.1632552 Z" id="Fill-10"></path>
                    <polygon id="Fill-12" points="236.208221 13.1632552 245.455117 13.1632552 256.698152 33.2046345 257.024221 33.2046345 256.575669 24.3246345 256.575669 13.1632552 264.600497 13.1632552 264.600497 44.6920828 255.394428 44.6920828 244.233048 24.8542897 243.906979 24.8542897 244.314152 33.4490483 244.314152 44.6920828 236.249048 44.6920828 236.249048 13.1632552"></polygon>
                </g>
            </g>
        </g>
    </g>
</svg>