<svg width="337" height="180" viewBox="0 0 337 180" fill="none" xmlns="http://www.w3.org/2000/svg">
<circle cx="1.35869" cy="1.3586" r="0.8" transform="rotate(-180 1.35869 1.3586)" fill="#440295"/>
<circle cx="21.055" cy="1.3586" r="0.8" transform="rotate(-180 21.055 1.3586)" fill="#440295"/>
<circle cx="40.7518" cy="1.3586" r="0.8" transform="rotate(-180 40.7518 1.3586)" fill="#440295"/>
<circle cx="60.448" cy="1.3586" r="0.8" transform="rotate(-180 60.448 1.3586)" fill="#440295"/>
<circle cx="99.8416" cy="1.3586" r="0.8" transform="rotate(-180 99.8416 1.3586)" fill="#440295"/>
<circle cx="119.538" cy="1.3586" r="0.8" transform="rotate(-180 119.538 1.3586)" fill="#440295"/>
<circle cx="139.235" cy="1.3586" r="0.8" transform="rotate(-180 139.235 1.3586)" fill="#440295"/>
<circle cx="158.931" cy="1.3586" r="0.8" transform="rotate(-180 158.931 1.3586)" fill="#440295"/>
<circle cx="178.628" cy="1.3586" r="0.8" transform="rotate(-180 178.628 1.3586)" fill="#440295"/>
<circle cx="198.324" cy="1.3586" r="0.8" transform="rotate(-180 198.324 1.3586)" fill="#440295"/>
<circle cx="218.021" cy="1.3586" r="0.8" transform="rotate(-180 218.021 1.3586)" fill="#440295"/>
<circle cx="237.717" cy="1.3586" r="0.8" transform="rotate(-180 237.717 1.3586)" fill="#440295"/>
<circle cx="277.11" cy="1.3586" r="0.8" transform="rotate(-180 277.11 1.3586)" fill="#440295"/>
<circle cx="296.807" cy="1.3586" r="0.8" transform="rotate(-180 296.807 1.3586)" fill="#440295"/>
<circle cx="316.504" cy="1.3586" r="0.8" transform="rotate(-180 316.504 1.3586)" fill="#440295"/>
<circle cx="336.2" cy="1.3586" r="0.8" transform="rotate(-180 336.2 1.3586)" fill="#440295"/>
<circle cx="1.35869" cy="1.3586" r="0.8" transform="rotate(-180 1.35869 1.3586)" fill="#440295"/>
<circle cx="21.055" cy="1.3586" r="0.8" transform="rotate(-180 21.055 1.3586)" fill="#440295"/>
<circle cx="40.7518" cy="1.3586" r="0.8" transform="rotate(-180 40.7518 1.3586)" fill="#440295"/>
<circle cx="60.448" cy="1.3586" r="0.8" transform="rotate(-180 60.448 1.3586)" fill="#440295"/>
<circle cx="99.8416" cy="1.3586" r="0.8" transform="rotate(-180 99.8416 1.3586)" fill="#440295"/>
<circle cx="119.538" cy="1.3586" r="0.8" transform="rotate(-180 119.538 1.3586)" fill="#440295"/>
<circle cx="139.235" cy="1.3586" r="0.8" transform="rotate(-180 139.235 1.3586)" fill="#440295"/>
<circle cx="158.931" cy="1.3586" r="0.8" transform="rotate(-180 158.931 1.3586)" fill="#440295"/>
<circle cx="178.628" cy="1.3586" r="0.8" transform="rotate(-180 178.628 1.3586)" fill="#440295"/>
<circle cx="198.324" cy="1.3586" r="0.8" transform="rotate(-180 198.324 1.3586)" fill="#440295"/>
<circle cx="218.021" cy="1.3586" r="0.8" transform="rotate(-180 218.021 1.3586)" fill="#440295"/>
<circle cx="237.717" cy="1.3586" r="0.8" transform="rotate(-180 237.717 1.3586)" fill="#440295"/>
<circle cx="277.11" cy="1.3586" r="0.8" transform="rotate(-180 277.11 1.3586)" fill="#440295"/>
<circle cx="296.807" cy="1.3586" r="0.8" transform="rotate(-180 296.807 1.3586)" fill="#440295"/>
<circle cx="316.504" cy="1.3586" r="0.8" transform="rotate(-180 316.504 1.3586)" fill="#440295"/>
<circle cx="336.2" cy="1.3586" r="0.8" transform="rotate(-180 336.2 1.3586)" fill="#440295"/>
<circle cx="1.35869" cy="21.0553" r="0.8" transform="rotate(-180 1.35869 21.0553)" fill="#440295"/>
<circle cx="21.055" cy="21.0553" r="0.8" transform="rotate(-180 21.055 21.0553)" fill="#440295"/>
<circle cx="40.7518" cy="21.0553" r="0.8" transform="rotate(-180 40.7518 21.0553)" fill="#440295"/>
<circle cx="60.448" cy="21.0553" r="0.8" transform="rotate(-180 60.448 21.0553)" fill="#440295"/>
<circle cx="277.11" cy="21.0553" r="0.8" transform="rotate(-180 277.11 21.0553)" fill="#440295"/>
<circle cx="296.807" cy="21.0553" r="0.8" transform="rotate(-180 296.807 21.0553)" fill="#440295"/>
<circle cx="316.504" cy="21.0553" r="0.8" transform="rotate(-180 316.504 21.0553)" fill="#440295"/>
<circle cx="336.2" cy="21.0553" r="0.8" transform="rotate(-180 336.2 21.0553)" fill="#440295"/>
<circle cx="1.35869" cy="40.7518" r="0.8" transform="rotate(-180 1.35869 40.7518)" fill="#440295"/>
<circle cx="21.055" cy="40.7518" r="0.8" transform="rotate(-180 21.055 40.7518)" fill="#440295"/>
<circle cx="40.7518" cy="40.7518" r="0.8" transform="rotate(-180 40.7518 40.7518)" fill="#440295"/>
<circle cx="60.448" cy="40.7518" r="0.8" transform="rotate(-180 60.448 40.7518)" fill="#440295"/>
<circle cx="80.1448" cy="40.7518" r="0.8" transform="rotate(-180 80.1448 40.7518)" fill="#440295"/>
<circle cx="80.1448" cy="21.06" r="0.8" transform="rotate(-180 80.1448 21.06)" fill="#440295"/>
<circle cx="99.8416" cy="40.7518" r="0.8" transform="rotate(-180 99.8416 40.7518)" fill="#440295"/>
<circle cx="99.8416" cy="21.06" r="0.8" transform="rotate(-180 99.8416 21.06)" fill="#440295"/>
<circle cx="119.538" cy="40.7518" r="0.8" transform="rotate(-180 119.538 40.7518)" fill="#440295"/>
<circle cx="119.538" cy="21.06" r="0.8" transform="rotate(-180 119.538 21.06)" fill="#440295"/>
<circle cx="139.235" cy="40.7518" r="0.8" transform="rotate(-180 139.235 40.7518)" fill="#440295"/>
<circle cx="139.235" cy="21.06" r="0.8" transform="rotate(-180 139.235 21.06)" fill="#440295"/>
<circle cx="158.931" cy="40.7518" r="0.8" transform="rotate(-180 158.931 40.7518)" fill="#440295"/>
<circle cx="158.931" cy="21.06" r="0.8" transform="rotate(-180 158.931 21.06)" fill="#440295"/>
<circle cx="178.628" cy="40.7518" r="0.8" transform="rotate(-180 178.628 40.7518)" fill="#440295"/>
<circle cx="178.628" cy="21.06" r="0.8" transform="rotate(-180 178.628 21.06)" fill="#440295"/>
<circle cx="198.324" cy="40.7518" r="0.8" transform="rotate(-180 198.324 40.7518)" fill="#440295"/>
<circle cx="198.324" cy="21.06" r="0.8" transform="rotate(-180 198.324 21.06)" fill="#440295"/>
<circle cx="218.021" cy="40.7518" r="0.8" transform="rotate(-180 218.021 40.7518)" fill="#440295"/>
<circle cx="218.021" cy="21.06" r="0.8" transform="rotate(-180 218.021 21.06)" fill="#440295"/>
<circle cx="237.717" cy="40.7518" r="0.8" transform="rotate(-180 237.717 40.7518)" fill="#440295"/>
<circle cx="237.717" cy="21.06" r="0.8" transform="rotate(-180 237.717 21.06)" fill="#440295"/>
<circle cx="257.414" cy="40.7518" r="0.8" transform="rotate(-180 257.414 40.7518)" fill="#440295"/>
<circle cx="257.414" cy="21.06" r="0.8" transform="rotate(-180 257.414 21.06)" fill="#440295"/>
<circle cx="277.11" cy="40.7518" r="0.8" transform="rotate(-180 277.11 40.7518)" fill="#440295"/>
<circle cx="296.807" cy="40.7518" r="0.8" transform="rotate(-180 296.807 40.7518)" fill="#440295"/>
<circle cx="316.504" cy="40.7518" r="0.8" transform="rotate(-180 316.504 40.7518)" fill="#440295"/>
<circle cx="336.2" cy="40.7518" r="0.8" transform="rotate(-180 336.2 40.7518)" fill="#440295"/>
<circle cx="1.35869" cy="60.4483" r="0.8" transform="rotate(-180 1.35869 60.4483)" fill="#440295"/>
<circle cx="21.055" cy="60.4483" r="0.8" transform="rotate(-180 21.055 60.4483)" fill="#440295"/>
<circle cx="40.7518" cy="60.4483" r="0.8" transform="rotate(-180 40.7518 60.4483)" fill="#440295"/>
<circle cx="60.448" cy="60.4483" r="0.8" transform="rotate(-180 60.448 60.4483)" fill="#440295"/>
<circle cx="80.1448" cy="60.4483" r="0.8" transform="rotate(-180 80.1448 60.4483)" fill="#440295"/>
<circle cx="99.8416" cy="60.4483" r="0.8" transform="rotate(-180 99.8416 60.4483)" fill="#440295"/>
<circle cx="119.538" cy="60.4483" r="0.8" transform="rotate(-180 119.538 60.4483)" fill="#440295"/>
<circle cx="139.235" cy="60.4483" r="0.8" transform="rotate(-180 139.235 60.4483)" fill="#440295"/>
<circle cx="158.931" cy="60.4483" r="0.8" transform="rotate(-180 158.931 60.4483)" fill="#440295"/>
<circle cx="178.628" cy="60.4483" r="0.8" transform="rotate(-180 178.628 60.4483)" fill="#440295"/>
<circle cx="198.324" cy="60.4483" r="0.8" transform="rotate(-180 198.324 60.4483)" fill="#440295"/>
<circle cx="218.021" cy="60.4483" r="0.8" transform="rotate(-180 218.021 60.4483)" fill="#440295"/>
<circle cx="237.717" cy="60.4483" r="0.8" transform="rotate(-180 237.717 60.4483)" fill="#440295"/>
<circle cx="257.414" cy="60.4483" r="0.8" transform="rotate(-180 257.414 60.4483)" fill="#440295"/>
<circle cx="277.11" cy="60.4483" r="0.8" transform="rotate(-180 277.11 60.4483)" fill="#440295"/>
<circle cx="296.807" cy="60.4483" r="0.8" transform="rotate(-180 296.807 60.4483)" fill="#440295"/>
<circle cx="316.504" cy="60.4483" r="0.8" transform="rotate(-180 316.504 60.4483)" fill="#440295"/>
<circle cx="336.2" cy="60.4483" r="0.8" transform="rotate(-180 336.2 60.4483)" fill="#440295"/>
<circle cx="1.35869" cy="80.145" r="0.8" transform="rotate(-180 1.35869 80.145)" fill="#440295"/>
<circle cx="21.055" cy="80.145" r="0.8" transform="rotate(-180 21.055 80.145)" fill="#440295"/>
<circle cx="40.7518" cy="80.145" r="0.8" transform="rotate(-180 40.7518 80.145)" fill="#440295"/>
<circle cx="60.448" cy="80.145" r="0.8" transform="rotate(-180 60.448 80.145)" fill="#440295"/>
<circle cx="80.1448" cy="80.145" r="0.8" transform="rotate(-180 80.1448 80.145)" fill="#440295"/>
<circle cx="99.8416" cy="80.145" r="0.8" transform="rotate(-180 99.8416 80.145)" fill="#440295"/>
<circle cx="119.538" cy="80.145" r="0.8" transform="rotate(-180 119.538 80.145)" fill="#440295"/>
<circle cx="139.235" cy="80.145" r="0.8" transform="rotate(-180 139.235 80.145)" fill="#440295"/>
<circle cx="158.931" cy="80.145" r="0.8" transform="rotate(-180 158.931 80.145)" fill="#440295"/>
<circle cx="178.628" cy="80.145" r="0.8" transform="rotate(-180 178.628 80.145)" fill="#440295"/>
<circle cx="198.324" cy="80.145" r="0.8" transform="rotate(-180 198.324 80.145)" fill="#440295"/>
<circle cx="218.021" cy="80.145" r="0.8" transform="rotate(-180 218.021 80.145)" fill="#440295"/>
<circle cx="237.717" cy="80.145" r="0.8" transform="rotate(-180 237.717 80.145)" fill="#440295"/>
<circle cx="257.414" cy="80.145" r="0.8" transform="rotate(-180 257.414 80.145)" fill="#440295"/>
<circle cx="277.11" cy="80.145" r="0.8" transform="rotate(-180 277.11 80.145)" fill="#440295"/>
<circle cx="296.807" cy="80.145" r="0.8" transform="rotate(-180 296.807 80.145)" fill="#440295"/>
<circle cx="316.504" cy="80.145" r="0.8" transform="rotate(-180 316.504 80.145)" fill="#440295"/>
<circle cx="336.2" cy="80.145" r="0.8" transform="rotate(-180 336.2 80.145)" fill="#440295"/>
<circle cx="1.35869" cy="99.8415" r="0.8" transform="rotate(-180 1.35869 99.8415)" fill="#440295"/>
<circle cx="21.055" cy="99.8415" r="0.8" transform="rotate(-180 21.055 99.8415)" fill="#440295"/>
<circle cx="40.7518" cy="99.8415" r="0.8" transform="rotate(-180 40.7518 99.8415)" fill="#440295"/>
<circle cx="60.448" cy="99.8415" r="0.8" transform="rotate(-180 60.448 99.8415)" fill="#440295"/>
<circle cx="80.1448" cy="99.8415" r="0.8" transform="rotate(-180 80.1448 99.8415)" fill="#440295"/>
<circle cx="99.8416" cy="99.8415" r="0.8" transform="rotate(-180 99.8416 99.8415)" fill="#440295"/>
<circle cx="119.538" cy="99.8415" r="0.8" transform="rotate(-180 119.538 99.8415)" fill="#440295"/>
<circle cx="139.235" cy="99.8415" r="0.8" transform="rotate(-180 139.235 99.8415)" fill="#440295"/>
<circle cx="158.931" cy="99.8415" r="0.8" transform="rotate(-180 158.931 99.8415)" fill="#440295"/>
<circle cx="178.628" cy="99.8415" r="0.8" transform="rotate(-180 178.628 99.8415)" fill="#440295"/>
<circle cx="198.324" cy="99.8415" r="0.8" transform="rotate(-180 198.324 99.8415)" fill="#440295"/>
<circle cx="218.021" cy="99.8415" r="0.8" transform="rotate(-180 218.021 99.8415)" fill="#440295"/>
<circle cx="237.717" cy="99.8415" r="0.8" transform="rotate(-180 237.717 99.8415)" fill="#440295"/>
<circle cx="257.414" cy="99.8415" r="0.8" transform="rotate(-180 257.414 99.8415)" fill="#440295"/>
<circle cx="277.11" cy="99.8415" r="0.8" transform="rotate(-180 277.11 99.8415)" fill="#440295"/>
<circle cx="296.807" cy="99.8415" r="0.8" transform="rotate(-180 296.807 99.8415)" fill="#440295"/>
<circle cx="316.504" cy="99.8415" r="0.8" transform="rotate(-180 316.504 99.8415)" fill="#440295"/>
<circle cx="336.2" cy="99.8415" r="0.8" transform="rotate(-180 336.2 99.8415)" fill="#440295"/>
<circle cx="1.35869" cy="119.538" r="0.8" transform="rotate(-180 1.35869 119.538)" fill="#440295"/>
<circle cx="21.055" cy="119.538" r="0.8" transform="rotate(-180 21.055 119.538)" fill="#440295"/>
<circle cx="40.7518" cy="119.538" r="0.8" transform="rotate(-180 40.7518 119.538)" fill="#440295"/>
<circle cx="60.448" cy="119.538" r="0.8" transform="rotate(-180 60.448 119.538)" fill="#440295"/>
<circle cx="80.1448" cy="119.538" r="0.8" transform="rotate(-180 80.1448 119.538)" fill="#440295"/>
<circle cx="99.8416" cy="119.538" r="0.8" transform="rotate(-180 99.8416 119.538)" fill="#440295"/>
<circle cx="119.538" cy="119.538" r="0.8" transform="rotate(-180 119.538 119.538)" fill="#440295"/>
<circle cx="139.235" cy="119.538" r="0.8" transform="rotate(-180 139.235 119.538)" fill="#440295"/>
<circle cx="158.931" cy="119.538" r="0.8" transform="rotate(-180 158.931 119.538)" fill="#440295"/>
<circle cx="178.628" cy="119.538" r="0.8" transform="rotate(-180 178.628 119.538)" fill="#440295"/>
<circle cx="198.324" cy="119.538" r="0.8" transform="rotate(-180 198.324 119.538)" fill="#440295"/>
<circle cx="218.021" cy="119.538" r="0.8" transform="rotate(-180 218.021 119.538)" fill="#440295"/>
<circle cx="237.717" cy="119.538" r="0.8" transform="rotate(-180 237.717 119.538)" fill="#440295"/>
<circle cx="257.414" cy="119.538" r="0.8" transform="rotate(-180 257.414 119.538)" fill="#440295"/>
<circle cx="277.11" cy="119.538" r="0.8" transform="rotate(-180 277.11 119.538)" fill="#440295"/>
<circle cx="296.807" cy="119.538" r="0.8" transform="rotate(-180 296.807 119.538)" fill="#440295"/>
<circle cx="316.504" cy="119.538" r="0.8" transform="rotate(-180 316.504 119.538)" fill="#440295"/>
<circle cx="336.2" cy="119.538" r="0.8" transform="rotate(-180 336.2 119.538)" fill="#440295"/>
<circle cx="1.35869" cy="139.234" r="0.8" transform="rotate(-180 1.35869 139.234)" fill="#440295"/>
<circle cx="21.055" cy="139.234" r="0.8" transform="rotate(-180 21.055 139.234)" fill="#440295"/>
<circle cx="40.7518" cy="139.234" r="0.8" transform="rotate(-180 40.7518 139.234)" fill="#440295"/>
<circle cx="60.448" cy="139.234" r="0.8" transform="rotate(-180 60.448 139.234)" fill="#440295"/>
<circle cx="80.1448" cy="139.234" r="0.8" transform="rotate(-180 80.1448 139.234)" fill="#440295"/>
<circle cx="99.8416" cy="139.234" r="0.8" transform="rotate(-180 99.8416 139.234)" fill="#440295"/>
<circle cx="119.538" cy="139.234" r="0.8" transform="rotate(-180 119.538 139.234)" fill="#440295"/>
<circle cx="139.235" cy="139.234" r="0.8" transform="rotate(-180 139.235 139.234)" fill="#440295"/>
<circle cx="158.931" cy="139.234" r="0.8" transform="rotate(-180 158.931 139.234)" fill="#440295"/>
<circle cx="178.628" cy="139.234" r="0.8" transform="rotate(-180 178.628 139.234)" fill="#440295"/>
<circle cx="198.324" cy="139.234" r="0.8" transform="rotate(-180 198.324 139.234)" fill="#440295"/>
<circle cx="218.021" cy="139.234" r="0.8" transform="rotate(-180 218.021 139.234)" fill="#440295"/>
<circle cx="237.717" cy="139.234" r="0.8" transform="rotate(-180 237.717 139.234)" fill="#440295"/>
<circle cx="257.414" cy="139.234" r="0.8" transform="rotate(-180 257.414 139.234)" fill="#440295"/>
<circle cx="277.11" cy="139.234" r="0.8" transform="rotate(-180 277.11 139.234)" fill="#440295"/>
<circle cx="296.807" cy="139.234" r="0.8" transform="rotate(-180 296.807 139.234)" fill="#440295"/>
<circle cx="316.504" cy="139.234" r="0.8" transform="rotate(-180 316.504 139.234)" fill="#440295"/>
<circle cx="336.2" cy="139.234" r="0.8" transform="rotate(-180 336.2 139.234)" fill="#440295"/>
<circle cx="1.35869" cy="158.931" r="0.8" transform="rotate(-180 1.35869 158.931)" fill="#440295"/>
<circle cx="21.055" cy="158.931" r="0.8" transform="rotate(-180 21.055 158.931)" fill="#440295"/>
<circle cx="40.7518" cy="158.931" r="0.8" transform="rotate(-180 40.7518 158.931)" fill="#440295"/>
<circle cx="60.448" cy="158.931" r="0.8" transform="rotate(-180 60.448 158.931)" fill="#440295"/>
<circle cx="80.1448" cy="158.931" r="0.8" transform="rotate(-180 80.1448 158.931)" fill="#440295"/>
<circle cx="99.8416" cy="158.931" r="0.8" transform="rotate(-180 99.8416 158.931)" fill="#440295"/>
<circle cx="119.538" cy="158.931" r="0.8" transform="rotate(-180 119.538 158.931)" fill="#440295"/>
<circle cx="139.235" cy="158.931" r="0.8" transform="rotate(-180 139.235 158.931)" fill="#440295"/>
<circle cx="158.931" cy="158.931" r="0.8" transform="rotate(-180 158.931 158.931)" fill="#440295"/>
<circle cx="178.628" cy="158.931" r="0.8" transform="rotate(-180 178.628 158.931)" fill="#440295"/>
<circle cx="198.324" cy="158.931" r="0.8" transform="rotate(-180 198.324 158.931)" fill="#440295"/>
<circle cx="218.021" cy="158.931" r="0.8" transform="rotate(-180 218.021 158.931)" fill="#440295"/>
<circle cx="237.717" cy="158.931" r="0.8" transform="rotate(-180 237.717 158.931)" fill="#440295"/>
<circle cx="257.414" cy="158.931" r="0.8" transform="rotate(-180 257.414 158.931)" fill="#440295"/>
<circle cx="277.11" cy="158.931" r="0.8" transform="rotate(-180 277.11 158.931)" fill="#440295"/>
<circle cx="296.807" cy="158.931" r="0.8" transform="rotate(-180 296.807 158.931)" fill="#440295"/>
<circle cx="316.504" cy="158.931" r="0.8" transform="rotate(-180 316.504 158.931)" fill="#440295"/>
<circle cx="336.2" cy="158.931" r="0.8" transform="rotate(-180 336.2 158.931)" fill="#440295"/>
<circle cx="1.35869" cy="178.628" r="0.8" transform="rotate(-180 1.35869 178.628)" fill="#440295"/>
<circle cx="21.055" cy="178.628" r="0.8" transform="rotate(-180 21.055 178.628)" fill="#440295"/>
<circle cx="40.7518" cy="178.628" r="0.8" transform="rotate(-180 40.7518 178.628)" fill="#440295"/>
<circle cx="60.448" cy="178.628" r="0.8" transform="rotate(-180 60.448 178.628)" fill="#440295"/>
<circle cx="80.1448" cy="178.628" r="0.8" transform="rotate(-180 80.1448 178.628)" fill="#440295"/>
<circle cx="99.8416" cy="178.628" r="0.8" transform="rotate(-180 99.8416 178.628)" fill="#440295"/>
<circle cx="119.538" cy="178.628" r="0.8" transform="rotate(-180 119.538 178.628)" fill="#440295"/>
<circle cx="139.235" cy="178.628" r="0.8" transform="rotate(-180 139.235 178.628)" fill="#440295"/>
<circle cx="158.931" cy="178.628" r="0.8" transform="rotate(-180 158.931 178.628)" fill="#440295"/>
<circle cx="178.628" cy="178.628" r="0.8" transform="rotate(-180 178.628 178.628)" fill="#440295"/>
<circle cx="198.324" cy="178.628" r="0.8" transform="rotate(-180 198.324 178.628)" fill="#440295"/>
<circle cx="218.021" cy="178.628" r="0.8" transform="rotate(-180 218.021 178.628)" fill="#440295"/>
<circle cx="237.717" cy="178.628" r="0.8" transform="rotate(-180 237.717 178.628)" fill="#440295"/>
<circle cx="257.414" cy="178.628" r="0.8" transform="rotate(-180 257.414 178.628)" fill="#440295"/>
<circle cx="277.11" cy="178.628" r="0.8" transform="rotate(-180 277.11 178.628)" fill="#440295"/>
<circle cx="296.807" cy="178.628" r="0.8" transform="rotate(-180 296.807 178.628)" fill="#440295"/>
<circle cx="316.504" cy="178.628" r="0.8" transform="rotate(-180 316.504 178.628)" fill="#440295"/>
<circle cx="336.2" cy="178.628" r="0.8" transform="rotate(-180 336.2 178.628)" fill="#440295"/>
</svg>
