<svg width="337" height="219" viewBox="0 0 337 219" fill="none" xmlns="http://www.w3.org/2000/svg">
<circle cx="1.1582" cy="1" r="1" transform="rotate(-180 1.1582 1)" fill="#0A060E"/>
<circle cx="20.8545" cy="1" r="1" transform="rotate(-180 20.8545 1)" fill="#0A060E"/>
<circle cx="40.5513" cy="1" r="1" transform="rotate(-180 40.5513 1)" fill="#0A060E"/>
<circle cx="60.2476" cy="1" r="1" transform="rotate(-180 60.2476 1)" fill="#0A060E"/>
<circle cx="79.9443" cy="1" r="1" transform="rotate(-180 79.9443 1)" fill="#0A060E"/>
<circle cx="99.6411" cy="1" r="1" transform="rotate(-180 99.6411 1)" fill="#0A060E"/>
<circle cx="119.337" cy="1" r="1" transform="rotate(-180 119.337 1)" fill="#0A060E"/>
<circle cx="139.034" cy="1" r="1" transform="rotate(-180 139.034 1)" fill="#0A060E"/>
<circle cx="158.73" cy="1" r="1" transform="rotate(-180 158.73 1)" fill="#0A060E"/>
<circle cx="178.427" cy="1" r="1" transform="rotate(-180 178.427 1)" fill="#0A060E"/>
<circle cx="198.124" cy="1" r="1" transform="rotate(-180 198.124 1)" fill="#0A060E"/>
<circle cx="217.82" cy="1" r="1" transform="rotate(-180 217.82 1)" fill="#0A060E"/>
<circle cx="237.517" cy="1" r="1" transform="rotate(-180 237.517 1)" fill="#0A060E"/>
<circle cx="257.213" cy="1" r="1" transform="rotate(-180 257.213 1)" fill="#0A060E"/>
<circle cx="276.91" cy="1" r="1" transform="rotate(-180 276.91 1)" fill="#0A060E"/>
<circle cx="296.606" cy="1" r="1" transform="rotate(-180 296.606 1)" fill="#0A060E"/>
<circle cx="316.303" cy="1" r="1" transform="rotate(-180 316.303 1)" fill="#0A060E"/>
<circle cx="336" cy="1" r="1" transform="rotate(-180 336 1)" fill="#0A060E"/>
<circle cx="1.1582" cy="1" r="1" transform="rotate(-180 1.1582 1)" fill="#0A060E"/>
<circle cx="20.8545" cy="1" r="1" transform="rotate(-180 20.8545 1)" fill="#0A060E"/>
<circle cx="40.5513" cy="1" r="1" transform="rotate(-180 40.5513 1)" fill="#0A060E"/>
<circle cx="60.2476" cy="1" r="1" transform="rotate(-180 60.2476 1)" fill="#0A060E"/>
<circle cx="79.9443" cy="1" r="1" transform="rotate(-180 79.9443 1)" fill="#0A060E"/>
<circle cx="99.6411" cy="1" r="1" transform="rotate(-180 99.6411 1)" fill="#0A060E"/>
<circle cx="119.337" cy="1" r="1" transform="rotate(-180 119.337 1)" fill="#0A060E"/>
<circle cx="139.034" cy="1" r="1" transform="rotate(-180 139.034 1)" fill="#0A060E"/>
<circle cx="158.73" cy="1" r="1" transform="rotate(-180 158.73 1)" fill="#0A060E"/>
<circle cx="178.427" cy="1" r="1" transform="rotate(-180 178.427 1)" fill="#0A060E"/>
<circle cx="198.124" cy="1" r="1" transform="rotate(-180 198.124 1)" fill="#0A060E"/>
<circle cx="217.82" cy="1" r="1" transform="rotate(-180 217.82 1)" fill="#0A060E"/>
<circle cx="237.517" cy="1" r="1" transform="rotate(-180 237.517 1)" fill="#0A060E"/>
<circle cx="257.213" cy="1" r="1" transform="rotate(-180 257.213 1)" fill="#0A060E"/>
<circle cx="276.91" cy="1" r="1" transform="rotate(-180 276.91 1)" fill="#0A060E"/>
<circle cx="296.606" cy="1" r="1" transform="rotate(-180 296.606 1)" fill="#0A060E"/>
<circle cx="316.303" cy="1" r="1" transform="rotate(-180 316.303 1)" fill="#0A060E"/>
<circle cx="336" cy="1" r="1" transform="rotate(-180 336 1)" fill="#0A060E"/>
<circle cx="1.1582" cy="20.6968" r="1" transform="rotate(-180 1.1582 20.6968)" fill="#0A060E"/>
<circle cx="20.8545" cy="20.6968" r="1" transform="rotate(-180 20.8545 20.6968)" fill="#0A060E"/>
<circle cx="40.5513" cy="20.6968" r="1" transform="rotate(-180 40.5513 20.6968)" fill="#0A060E"/>
<circle cx="60.2476" cy="20.6968" r="1" transform="rotate(-180 60.2476 20.6968)" fill="#0A060E"/>
<circle cx="79.9443" cy="20.6968" r="1" transform="rotate(-180 79.9443 20.6968)" fill="#0A060E"/>
<circle cx="99.6411" cy="20.6968" r="1" transform="rotate(-180 99.6411 20.6968)" fill="#0A060E"/>
<circle cx="119.337" cy="20.6968" r="1" transform="rotate(-180 119.337 20.6968)" fill="#0A060E"/>
<circle cx="139.034" cy="20.6968" r="1" transform="rotate(-180 139.034 20.6968)" fill="#0A060E"/>
<circle cx="158.73" cy="20.6968" r="1" transform="rotate(-180 158.73 20.6968)" fill="#0A060E"/>
<circle cx="178.427" cy="20.6968" r="1" transform="rotate(-180 178.427 20.6968)" fill="#0A060E"/>
<circle cx="198.124" cy="20.6968" r="1" transform="rotate(-180 198.124 20.6968)" fill="#0A060E"/>
<circle cx="217.82" cy="20.6968" r="1" transform="rotate(-180 217.82 20.6968)" fill="#0A060E"/>
<circle cx="237.517" cy="20.6968" r="1" transform="rotate(-180 237.517 20.6968)" fill="#0A060E"/>
<circle cx="257.213" cy="20.6968" r="1" transform="rotate(-180 257.213 20.6968)" fill="#0A060E"/>
<circle cx="276.91" cy="20.6968" r="1" transform="rotate(-180 276.91 20.6968)" fill="#0A060E"/>
<circle cx="296.606" cy="20.6968" r="1" transform="rotate(-180 296.606 20.6968)" fill="#0A060E"/>
<circle cx="316.303" cy="20.6968" r="1" transform="rotate(-180 316.303 20.6968)" fill="#0A060E"/>
<circle cx="336" cy="20.6968" r="1" transform="rotate(-180 336 20.6968)" fill="#0A060E"/>
<circle cx="1.1582" cy="40.3931" r="1" transform="rotate(-180 1.1582 40.3931)" fill="#0A060E"/>
<circle cx="20.8545" cy="40.3931" r="1" transform="rotate(-180 20.8545 40.3931)" fill="#0A060E"/>
<circle cx="40.5513" cy="40.3931" r="1" transform="rotate(-180 40.5513 40.3931)" fill="#0A060E"/>
<circle cx="60.2476" cy="40.3931" r="1" transform="rotate(-180 60.2476 40.3931)" fill="#0A060E"/>
<circle cx="79.9443" cy="40.3931" r="1" transform="rotate(-180 79.9443 40.3931)" fill="#0A060E"/>
<circle cx="99.6411" cy="40.3931" r="1" transform="rotate(-180 99.6411 40.3931)" fill="#0A060E"/>
<circle cx="119.337" cy="40.3931" r="1" transform="rotate(-180 119.337 40.3931)" fill="#0A060E"/>
<circle cx="139.034" cy="40.3931" r="1" transform="rotate(-180 139.034 40.3931)" fill="#0A060E"/>
<circle cx="158.73" cy="40.3931" r="1" transform="rotate(-180 158.73 40.3931)" fill="#0A060E"/>
<circle cx="178.427" cy="40.3931" r="1" transform="rotate(-180 178.427 40.3931)" fill="#0A060E"/>
<circle cx="198.124" cy="40.3931" r="1" transform="rotate(-180 198.124 40.3931)" fill="#0A060E"/>
<circle cx="217.82" cy="40.3931" r="1" transform="rotate(-180 217.82 40.3931)" fill="#0A060E"/>
<circle cx="237.517" cy="40.3931" r="1" transform="rotate(-180 237.517 40.3931)" fill="#0A060E"/>
<circle cx="257.213" cy="40.3931" r="1" transform="rotate(-180 257.213 40.3931)" fill="#0A060E"/>
<circle cx="276.91" cy="40.3931" r="1" transform="rotate(-180 276.91 40.3931)" fill="#0A060E"/>
<circle cx="296.606" cy="40.3931" r="1" transform="rotate(-180 296.606 40.3931)" fill="#0A060E"/>
<circle cx="316.303" cy="40.3931" r="1" transform="rotate(-180 316.303 40.3931)" fill="#0A060E"/>
<circle cx="336" cy="40.3931" r="1" transform="rotate(-180 336 40.3931)" fill="#0A060E"/>
<circle cx="1.1582" cy="60.0898" r="1" transform="rotate(-180 1.1582 60.0898)" fill="#0A060E"/>
<circle cx="20.8545" cy="60.0898" r="1" transform="rotate(-180 20.8545 60.0898)" fill="#0A060E"/>
<circle cx="40.5513" cy="60.0898" r="1" transform="rotate(-180 40.5513 60.0898)" fill="#0A060E"/>
<circle cx="1.1582" cy="79.7861" r="1" transform="rotate(-180 1.1582 79.7861)" fill="#0A060E"/>
<circle cx="20.8545" cy="79.7861" r="1" transform="rotate(-180 20.8545 79.7861)" fill="#0A060E"/>
<circle cx="40.5513" cy="79.7861" r="1" transform="rotate(-180 40.5513 79.7861)" fill="#0A060E"/>
<circle cx="1.1582" cy="99.4829" r="1" transform="rotate(-180 1.1582 99.4829)" fill="#0A060E"/>
<circle cx="20.8545" cy="99.4829" r="1" transform="rotate(-180 20.8545 99.4829)" fill="#0A060E"/>
<circle cx="40.5513" cy="99.4829" r="1" transform="rotate(-180 40.5513 99.4829)" fill="#0A060E"/>
<circle cx="1.1582" cy="119.179" r="1" transform="rotate(-180 1.1582 119.179)" fill="#0A060E"/>
<circle cx="20.8545" cy="119.179" r="1" transform="rotate(-180 20.8545 119.179)" fill="#0A060E"/>
<circle cx="40.5513" cy="119.179" r="1" transform="rotate(-180 40.5513 119.179)" fill="#0A060E"/>
<circle cx="1.1582" cy="138.876" r="1" transform="rotate(-180 1.1582 138.876)" fill="#0A060E"/>
<circle cx="20.8545" cy="138.876" r="1" transform="rotate(-180 20.8545 138.876)" fill="#0A060E"/>
<circle cx="40.5513" cy="138.876" r="1" transform="rotate(-180 40.5513 138.876)" fill="#0A060E"/>
<circle cx="1.1582" cy="158.572" r="1" transform="rotate(-180 1.1582 158.572)" fill="#0A060E"/>
<circle cx="20.8545" cy="158.572" r="1" transform="rotate(-180 20.8545 158.572)" fill="#0A060E"/>
<circle cx="40.5513" cy="158.572" r="1" transform="rotate(-180 40.5513 158.572)" fill="#0A060E"/>
<circle cx="1.1582" cy="178.269" r="1" transform="rotate(-180 1.1582 178.269)" fill="#0A060E"/>
<circle cx="20.8545" cy="178.269" r="1" transform="rotate(-180 20.8545 178.269)" fill="#0A060E"/>
<circle cx="40.5513" cy="178.269" r="1" transform="rotate(-180 40.5513 178.269)" fill="#0A060E"/>
<circle cx="1.1582" cy="197.965" r="1" transform="rotate(-180 1.1582 197.965)" fill="#0A060E"/>
<circle cx="20.8545" cy="197.965" r="1" transform="rotate(-180 20.8545 197.965)" fill="#0A060E"/>
<circle cx="40.5513" cy="197.965" r="1" transform="rotate(-180 40.5513 197.965)" fill="#0A060E"/>
<circle cx="1.1582" cy="217.662" r="1" transform="rotate(-180 1.1582 217.662)" fill="#0A060E"/>
<circle cx="20.8545" cy="217.662" r="1" transform="rotate(-180 20.8545 217.662)" fill="#0A060E"/>
<circle cx="40.5513" cy="217.662" r="1" transform="rotate(-180 40.5513 217.662)" fill="#0A060E"/>
</svg>
